 <svg width="611" height="611" viewBox="0 0 611 611" fill="none" xmlns="http://www.w3.org/2000/svg">
<g filter="url(#filter0_d_38_2)">
<circle cx="305.5" cy="301.5" r="285.5" fill="url(#paint0_linear_38_2)"/>
</g>
<g filter="url(#filter1_d_38_2)">
<path d="M591 301.5C591 264.008 583.615 226.882 569.268 192.244C554.92 157.605 533.89 126.132 507.379 99.621C480.868 73.1099 449.395 52.0801 414.756 37.7324C380.118 23.3847 342.992 16 305.5 16C268.008 16 230.882 23.3847 196.244 37.7324C161.605 52.0801 130.132 73.1099 103.621 99.621C77.1099 126.132 56.0801 157.605 41.7324 192.244C27.3847 226.882 20 264.008 20 301.5L305.5 301.5H591Z" fill="url(#paint1_linear_38_2)" shape-rendering="crispEdges"/>
</g>
<line x1="20" y1="301.5" x2="591" y2="301.5" stroke="black"/>
<g filter="url(#filter2_d_38_2)">
<mask id="path-4-outside-1_38_2" maskUnits="userSpaceOnUse" x="204" y="172" width="204" height="40" fill="black">
<rect fill="white" x="204" y="172" width="204" height="40"/>
<path d="M205.741 210V173.636H210.145V191.676H210.571L226.906 173.636H232.659L217.389 190.043L232.659 210H227.332L214.69 193.097L210.145 198.21V210H205.741ZM247.995 189.865V193.771H232.086V189.865H247.995ZM255.937 173.636H261.192L273.55 203.821H273.976L286.334 173.636H291.59V210H287.471V182.372H287.116L275.752 210H271.775L260.411 182.372H260.056V210H255.937V173.636ZM311.286 210.568C308.658 210.568 306.391 209.988 304.485 208.828C302.591 207.656 301.129 206.023 300.099 203.928C299.081 201.821 298.572 199.37 298.572 196.577C298.572 193.783 299.081 191.321 300.099 189.19C301.129 187.048 302.562 185.379 304.396 184.183C306.243 182.976 308.397 182.372 310.859 182.372C312.28 182.372 313.683 182.609 315.067 183.082C316.452 183.556 317.713 184.325 318.849 185.391C319.986 186.444 320.891 187.841 321.566 189.581C322.241 191.321 322.578 193.464 322.578 196.009V197.784H301.555V194.162H318.317C318.317 192.623 318.009 191.25 317.393 190.043C316.79 188.835 315.926 187.882 314.801 187.184C313.688 186.486 312.375 186.136 310.859 186.136C309.19 186.136 307.746 186.551 306.527 187.379C305.32 188.196 304.39 189.261 303.739 190.575C303.088 191.889 302.763 193.298 302.763 194.801V197.216C302.763 199.276 303.118 201.022 303.828 202.454C304.55 203.874 305.55 204.957 306.829 205.703C308.107 206.437 309.593 206.804 311.286 206.804C312.386 206.804 313.381 206.65 314.268 206.342C315.168 206.023 315.943 205.549 316.594 204.922C317.246 204.283 317.749 203.49 318.104 202.543L322.152 203.679C321.726 205.052 321.01 206.259 320.004 207.301C318.997 208.331 317.754 209.136 316.275 209.716C314.795 210.284 313.132 210.568 311.286 210.568ZM336.978 210.639C335.25 210.639 333.681 210.314 332.273 209.663C330.864 209 329.746 208.047 328.917 206.804C328.088 205.549 327.674 204.034 327.674 202.259C327.674 200.696 327.982 199.429 328.597 198.459C329.213 197.476 330.036 196.707 331.065 196.151C332.095 195.594 333.232 195.18 334.474 194.908C335.729 194.624 336.99 194.399 338.256 194.233C339.914 194.02 341.257 193.86 342.287 193.754C343.329 193.635 344.086 193.44 344.56 193.168C345.045 192.895 345.288 192.422 345.288 191.747V191.605C345.288 189.853 344.808 188.492 343.849 187.521C342.902 186.551 341.464 186.065 339.535 186.065C337.534 186.065 335.966 186.503 334.83 187.379C333.693 188.255 332.894 189.19 332.433 190.185L328.455 188.764C329.165 187.107 330.112 185.817 331.296 184.893C332.492 183.958 333.794 183.307 335.202 182.94C336.623 182.562 338.02 182.372 339.393 182.372C340.269 182.372 341.275 182.479 342.411 182.692C343.559 182.893 344.666 183.313 345.732 183.952C346.809 184.592 347.702 185.556 348.413 186.847C349.123 188.137 349.478 189.865 349.478 192.031V210H345.288V206.307H345.075C344.79 206.899 344.317 207.532 343.654 208.207C342.991 208.881 342.109 209.455 341.009 209.929C339.908 210.402 338.564 210.639 336.978 210.639ZM337.617 206.875C339.274 206.875 340.671 206.549 341.808 205.898C342.956 205.247 343.82 204.407 344.4 203.377C344.992 202.347 345.288 201.264 345.288 200.128V196.293C345.11 196.506 344.719 196.701 344.116 196.879C343.524 197.044 342.837 197.192 342.056 197.322C341.287 197.441 340.535 197.547 339.801 197.642C339.079 197.725 338.493 197.796 338.043 197.855C336.954 197.997 335.936 198.228 334.989 198.548C334.054 198.855 333.297 199.323 332.717 199.95C332.148 200.566 331.864 201.406 331.864 202.472C331.864 203.928 332.403 205.028 333.48 205.774C334.569 206.508 335.948 206.875 337.617 206.875ZM361.317 193.594V210H357.126V182.727H361.175V186.989H361.53C362.169 185.604 363.14 184.491 364.442 183.651C365.744 182.798 367.425 182.372 369.484 182.372C371.331 182.372 372.947 182.751 374.331 183.509C375.716 184.254 376.794 185.391 377.563 186.918C378.332 188.433 378.717 190.35 378.717 192.67V210H374.527V192.955C374.527 190.812 373.97 189.143 372.858 187.947C371.745 186.74 370.218 186.136 368.277 186.136C366.939 186.136 365.744 186.426 364.69 187.006C363.648 187.586 362.826 188.433 362.222 189.545C361.618 190.658 361.317 192.008 361.317 193.594ZM405.692 188.835L401.928 189.901C401.692 189.273 401.342 188.664 400.881 188.072C400.431 187.468 399.815 186.971 399.034 186.58C398.253 186.19 397.253 185.994 396.033 185.994C394.364 185.994 392.973 186.379 391.861 187.148C390.76 187.906 390.21 188.871 390.21 190.043C390.21 191.084 390.588 191.907 391.346 192.511C392.103 193.114 393.287 193.617 394.897 194.02L398.945 195.014C401.384 195.606 403.201 196.512 404.396 197.731C405.592 198.938 406.19 200.495 406.19 202.401C406.19 203.963 405.74 205.36 404.84 206.591C403.952 207.822 402.71 208.793 401.112 209.503C399.513 210.213 397.655 210.568 395.536 210.568C392.754 210.568 390.452 209.964 388.629 208.757C386.806 207.55 385.652 205.786 385.167 203.466L389.144 202.472C389.523 203.939 390.239 205.04 391.293 205.774C392.358 206.508 393.749 206.875 395.465 206.875C397.418 206.875 398.969 206.461 400.117 205.632C401.277 204.792 401.857 203.786 401.857 202.614C401.857 201.667 401.526 200.874 400.863 200.234C400.2 199.583 399.182 199.098 397.809 198.778L393.263 197.713C390.766 197.121 388.931 196.204 387.759 194.961C386.599 193.706 386.019 192.138 386.019 190.256C386.019 188.717 386.451 187.356 387.315 186.172C388.191 184.988 389.381 184.059 390.884 183.384C392.399 182.71 394.116 182.372 396.033 182.372C398.732 182.372 400.851 182.964 402.39 184.148C403.941 185.331 405.041 186.894 405.692 188.835Z"/>
</mask>
<path d="M205.741 210V173.636H210.145V191.676H210.571L226.906 173.636H232.659L217.389 190.043L232.659 210H227.332L214.69 193.097L210.145 198.21V210H205.741ZM247.995 189.865V193.771H232.086V189.865H247.995ZM255.937 173.636H261.192L273.55 203.821H273.976L286.334 173.636H291.59V210H287.471V182.372H287.116L275.752 210H271.775L260.411 182.372H260.056V210H255.937V173.636ZM311.286 210.568C308.658 210.568 306.391 209.988 304.485 208.828C302.591 207.656 301.129 206.023 300.099 203.928C299.081 201.821 298.572 199.37 298.572 196.577C298.572 193.783 299.081 191.321 300.099 189.19C301.129 187.048 302.562 185.379 304.396 184.183C306.243 182.976 308.397 182.372 310.859 182.372C312.28 182.372 313.683 182.609 315.067 183.082C316.452 183.556 317.713 184.325 318.849 185.391C319.986 186.444 320.891 187.841 321.566 189.581C322.241 191.321 322.578 193.464 322.578 196.009V197.784H301.555V194.162H318.317C318.317 192.623 318.009 191.25 317.393 190.043C316.79 188.835 315.926 187.882 314.801 187.184C313.688 186.486 312.375 186.136 310.859 186.136C309.19 186.136 307.746 186.551 306.527 187.379C305.32 188.196 304.39 189.261 303.739 190.575C303.088 191.889 302.763 193.298 302.763 194.801V197.216C302.763 199.276 303.118 201.022 303.828 202.454C304.55 203.874 305.55 204.957 306.829 205.703C308.107 206.437 309.593 206.804 311.286 206.804C312.386 206.804 313.381 206.65 314.268 206.342C315.168 206.023 315.943 205.549 316.594 204.922C317.246 204.283 317.749 203.49 318.104 202.543L322.152 203.679C321.726 205.052 321.01 206.259 320.004 207.301C318.997 208.331 317.754 209.136 316.275 209.716C314.795 210.284 313.132 210.568 311.286 210.568ZM336.978 210.639C335.25 210.639 333.681 210.314 332.273 209.663C330.864 209 329.746 208.047 328.917 206.804C328.088 205.549 327.674 204.034 327.674 202.259C327.674 200.696 327.982 199.429 328.597 198.459C329.213 197.476 330.036 196.707 331.065 196.151C332.095 195.594 333.232 195.18 334.474 194.908C335.729 194.624 336.99 194.399 338.256 194.233C339.914 194.02 341.257 193.86 342.287 193.754C343.329 193.635 344.086 193.44 344.56 193.168C345.045 192.895 345.288 192.422 345.288 191.747V191.605C345.288 189.853 344.808 188.492 343.849 187.521C342.902 186.551 341.464 186.065 339.535 186.065C337.534 186.065 335.966 186.503 334.83 187.379C333.693 188.255 332.894 189.19 332.433 190.185L328.455 188.764C329.165 187.107 330.112 185.817 331.296 184.893C332.492 183.958 333.794 183.307 335.202 182.94C336.623 182.562 338.02 182.372 339.393 182.372C340.269 182.372 341.275 182.479 342.411 182.692C343.559 182.893 344.666 183.313 345.732 183.952C346.809 184.592 347.702 185.556 348.413 186.847C349.123 188.137 349.478 189.865 349.478 192.031V210H345.288V206.307H345.075C344.79 206.899 344.317 207.532 343.654 208.207C342.991 208.881 342.109 209.455 341.009 209.929C339.908 210.402 338.564 210.639 336.978 210.639ZM337.617 206.875C339.274 206.875 340.671 206.549 341.808 205.898C342.956 205.247 343.82 204.407 344.4 203.377C344.992 202.347 345.288 201.264 345.288 200.128V196.293C345.11 196.506 344.719 196.701 344.116 196.879C343.524 197.044 342.837 197.192 342.056 197.322C341.287 197.441 340.535 197.547 339.801 197.642C339.079 197.725 338.493 197.796 338.043 197.855C336.954 197.997 335.936 198.228 334.989 198.548C334.054 198.855 333.297 199.323 332.717 199.95C332.148 200.566 331.864 201.406 331.864 202.472C331.864 203.928 332.403 205.028 333.48 205.774C334.569 206.508 335.948 206.875 337.617 206.875ZM361.317 193.594V210H357.126V182.727H361.175V186.989H361.53C362.169 185.604 363.14 184.491 364.442 183.651C365.744 182.798 367.425 182.372 369.484 182.372C371.331 182.372 372.947 182.751 374.331 183.509C375.716 184.254 376.794 185.391 377.563 186.918C378.332 188.433 378.717 190.35 378.717 192.67V210H374.527V192.955C374.527 190.812 373.97 189.143 372.858 187.947C371.745 186.74 370.218 186.136 368.277 186.136C366.939 186.136 365.744 186.426 364.69 187.006C363.648 187.586 362.826 188.433 362.222 189.545C361.618 190.658 361.317 192.008 361.317 193.594ZM405.692 188.835L401.928 189.901C401.692 189.273 401.342 188.664 400.881 188.072C400.431 187.468 399.815 186.971 399.034 186.58C398.253 186.19 397.253 185.994 396.033 185.994C394.364 185.994 392.973 186.379 391.861 187.148C390.76 187.906 390.21 188.871 390.21 190.043C390.21 191.084 390.588 191.907 391.346 192.511C392.103 193.114 393.287 193.617 394.897 194.02L398.945 195.014C401.384 195.606 403.201 196.512 404.396 197.731C405.592 198.938 406.19 200.495 406.19 202.401C406.19 203.963 405.74 205.36 404.84 206.591C403.952 207.822 402.71 208.793 401.112 209.503C399.513 210.213 397.655 210.568 395.536 210.568C392.754 210.568 390.452 209.964 388.629 208.757C386.806 207.55 385.652 205.786 385.167 203.466L389.144 202.472C389.523 203.939 390.239 205.04 391.293 205.774C392.358 206.508 393.749 206.875 395.465 206.875C397.418 206.875 398.969 206.461 400.117 205.632C401.277 204.792 401.857 203.786 401.857 202.614C401.857 201.667 401.526 200.874 400.863 200.234C400.2 199.583 399.182 199.098 397.809 198.778L393.263 197.713C390.766 197.121 388.931 196.204 387.759 194.961C386.599 193.706 386.019 192.138 386.019 190.256C386.019 188.717 386.451 187.356 387.315 186.172C388.191 184.988 389.381 184.059 390.884 183.384C392.399 182.71 394.116 182.372 396.033 182.372C398.732 182.372 400.851 182.964 402.39 184.148C403.941 185.331 405.041 186.894 405.692 188.835Z" fill="black"/>
<path d="M205.741 210H204.741V211H205.741V210ZM205.741 173.636V172.636H204.741V173.636H205.741ZM210.145 173.636H211.145V172.636H210.145V173.636ZM210.145 191.676H209.145V192.676H210.145V191.676ZM210.571 191.676V192.676H211.014L211.312 192.347L210.571 191.676ZM226.906 173.636V172.636H226.463L226.165 172.965L226.906 173.636ZM232.659 173.636L233.391 174.318L234.956 172.636H232.659V173.636ZM217.389 190.043L216.657 189.361L216.082 189.98L216.595 190.65L217.389 190.043ZM232.659 210V211H234.683L233.453 209.392L232.659 210ZM227.332 210L226.531 210.599L226.831 211H227.332V210ZM214.69 193.097L215.491 192.498L214.757 191.516L213.943 192.432L214.69 193.097ZM210.145 198.21L209.397 197.546L209.145 197.83V198.21H210.145ZM210.145 210V211H211.145V210H210.145ZM206.741 210V173.636H204.741V210H206.741ZM205.741 174.636H210.145V172.636H205.741V174.636ZM209.145 173.636V191.676H211.145V173.636H209.145ZM210.145 192.676H210.571V190.676H210.145V192.676ZM211.312 192.347L227.647 174.308L226.165 172.965L209.83 191.005L211.312 192.347ZM226.906 174.636H232.659V172.636H226.906V174.636ZM231.927 172.955L216.657 189.361L218.121 190.724L233.391 174.318L231.927 172.955ZM216.595 190.65L231.865 210.608L233.453 209.392L218.183 189.435L216.595 190.65ZM232.659 209H227.332V211H232.659V209ZM228.133 209.401L215.491 192.498L213.889 193.696L226.531 210.599L228.133 209.401ZM213.943 192.432L209.397 197.546L210.892 198.875L215.438 193.761L213.943 192.432ZM209.145 198.21V210H211.145V198.21H209.145ZM210.145 209H205.741V211H210.145V209ZM247.995 189.865H248.995V188.865H247.995V189.865ZM247.995 193.771V194.771H248.995V193.771H247.995ZM232.086 193.771H231.086V194.771H232.086V193.771ZM232.086 189.865V188.865H231.086V189.865H232.086ZM246.995 189.865V193.771H248.995V189.865H246.995ZM247.995 192.771H232.086V194.771H247.995V192.771ZM233.086 193.771V189.865H231.086V193.771H233.086ZM232.086 190.865H247.995V188.865H232.086V190.865ZM255.937 173.636V172.636H254.937V173.636H255.937ZM261.192 173.636L262.118 173.257L261.863 172.636H261.192V173.636ZM273.55 203.821L272.625 204.2L272.879 204.821H273.55V203.821ZM273.976 203.821V204.821H274.648L274.902 204.2L273.976 203.821ZM286.334 173.636V172.636H285.663L285.409 173.257L286.334 173.636ZM291.59 173.636H292.59V172.636H291.59V173.636ZM291.59 210V211H292.59V210H291.59ZM287.471 210H286.471V211H287.471V210ZM287.471 182.372H288.471V181.372H287.471V182.372ZM287.116 182.372V181.372H286.446L286.191 181.992L287.116 182.372ZM275.752 210V211H276.422L276.677 210.38L275.752 210ZM271.775 210L270.85 210.38L271.105 211H271.775V210ZM260.411 182.372L261.336 181.992L261.081 181.372H260.411V182.372ZM260.056 182.372V181.372H259.056V182.372H260.056ZM260.056 210V211H261.056V210H260.056ZM255.937 210H254.937V211H255.937V210ZM255.937 174.636H261.192V172.636H255.937V174.636ZM260.267 174.015L272.625 204.2L274.476 203.442L262.118 173.257L260.267 174.015ZM273.55 204.821H273.976V202.821H273.55V204.821ZM274.902 204.2L287.26 174.015L285.409 173.257L273.051 203.442L274.902 204.2ZM286.334 174.636H291.59V172.636H286.334V174.636ZM290.59 173.636V210H292.59V173.636H290.59ZM291.59 209H287.471V211H291.59V209ZM288.471 210V182.372H286.471V210H288.471ZM287.471 181.372H287.116V183.372H287.471V181.372ZM286.191 181.992L274.827 209.62L276.677 210.38L288.04 182.753L286.191 181.992ZM275.752 209H271.775V211H275.752V209ZM272.7 209.62L261.336 181.992L259.486 182.753L270.85 210.38L272.7 209.62ZM260.411 181.372H260.056V183.372H260.411V181.372ZM259.056 182.372V210H261.056V182.372H259.056ZM260.056 209H255.937V211H260.056V209ZM256.937 210V173.636H254.937V210H256.937ZM304.485 208.828L303.959 209.679L303.965 209.682L304.485 208.828ZM300.099 203.928L299.199 204.363L299.202 204.369L300.099 203.928ZM300.099 189.19L299.198 188.757L299.197 188.759L300.099 189.19ZM304.396 184.183L304.942 185.021L304.944 185.02L304.396 184.183ZM315.067 183.082L315.391 182.136H315.391L315.067 183.082ZM318.849 185.391L318.165 186.12L318.17 186.124L318.849 185.391ZM321.566 189.581L322.498 189.219V189.219L321.566 189.581ZM322.578 197.784V198.784H323.578V197.784H322.578ZM301.555 197.784H300.555V198.784H301.555V197.784ZM301.555 194.162V193.162H300.555V194.162H301.555ZM318.317 194.162V195.162H319.317V194.162H318.317ZM317.393 190.043L316.499 190.49L316.503 190.497L317.393 190.043ZM314.801 187.184L314.27 188.031L314.274 188.033L314.801 187.184ZM306.527 187.379L307.087 188.208L307.089 188.206L306.527 187.379ZM303.739 190.575L302.843 190.131L303.739 190.575ZM303.828 202.454L302.932 202.898L302.937 202.907L303.828 202.454ZM306.829 205.703L306.325 206.567L306.331 206.57L306.829 205.703ZM314.268 206.342L314.596 207.287L314.603 207.285L314.268 206.342ZM316.594 204.922L317.288 205.642L317.295 205.635L316.594 204.922ZM318.104 202.543L318.374 201.58L317.49 201.332L317.167 202.191L318.104 202.543ZM322.152 203.679L323.107 203.975L323.412 202.994L322.422 202.716L322.152 203.679ZM320.004 207.301L320.719 208L320.723 207.996L320.004 207.301ZM316.275 209.716L316.633 210.649L316.64 210.647L316.275 209.716ZM311.286 209.568C308.808 209.568 306.728 209.023 305.005 207.974L303.965 209.682C306.054 210.954 308.507 211.568 311.286 211.568V209.568ZM305.011 207.978C303.285 206.91 301.948 205.422 300.997 203.486L299.202 204.369C300.31 206.624 301.897 208.403 303.959 209.679L305.011 207.978ZM301 203.493C300.059 201.545 299.572 199.248 299.572 196.577H297.572C297.572 199.492 298.104 202.096 299.199 204.363L301 203.493ZM299.572 196.577C299.572 193.905 300.059 191.595 301.002 189.621L299.197 188.759C298.104 191.047 297.572 193.661 297.572 196.577H299.572ZM301.001 189.624C301.958 187.631 303.274 186.108 304.942 185.021L303.85 183.345C301.849 184.649 300.3 186.464 299.198 188.757L301.001 189.624ZM304.944 185.02C306.609 183.931 308.568 183.372 310.859 183.372V181.372C308.226 181.372 305.877 182.02 303.849 183.346L304.944 185.02ZM310.859 183.372C312.166 183.372 313.46 183.59 314.744 184.029L315.391 182.136C313.905 181.628 312.393 181.372 310.859 181.372V183.372ZM314.744 184.029C315.986 184.453 317.126 185.145 318.165 186.12L319.533 184.661C318.3 183.505 316.919 182.658 315.391 182.136L314.744 184.029ZM318.17 186.124C319.174 187.055 320.003 188.315 320.634 189.942L322.498 189.219C321.78 187.366 320.797 185.833 319.529 184.657L318.17 186.124ZM320.634 189.942C321.251 191.534 321.578 193.545 321.578 196.009H323.578C323.578 193.382 323.231 191.108 322.498 189.219L320.634 189.942ZM321.578 196.009V197.784H323.578V196.009H321.578ZM322.578 196.784H301.555V198.784H322.578V196.784ZM302.555 197.784V194.162H300.555V197.784H302.555ZM301.555 195.162H318.317V193.162H301.555V195.162ZM319.317 194.162C319.317 192.487 318.981 190.954 318.284 189.588L316.503 190.497C317.037 191.546 317.317 192.759 317.317 194.162H319.317ZM318.288 189.595C317.603 188.226 316.614 187.132 315.329 186.334L314.274 188.033C315.238 188.632 315.976 189.444 316.499 190.49L318.288 189.595ZM315.333 186.337C314.038 185.524 312.533 185.136 310.859 185.136V187.136C312.216 187.136 313.339 187.447 314.27 188.031L315.333 186.337ZM310.859 185.136C309.017 185.136 307.371 185.596 305.965 186.552L307.089 188.206C308.121 187.505 309.363 187.136 310.859 187.136V185.136ZM305.967 186.551C304.615 187.465 303.571 188.663 302.843 190.131L304.635 191.019C305.21 189.859 306.024 188.927 307.087 188.208L305.967 186.551ZM302.843 190.131C302.122 191.587 301.763 193.148 301.763 194.801H303.763C303.763 193.448 304.054 192.192 304.635 191.019L302.843 190.131ZM301.763 194.801V197.216H303.763V194.801H301.763ZM301.763 197.216C301.763 199.387 302.137 201.294 302.932 202.898L304.724 202.01C304.099 200.749 303.763 199.164 303.763 197.216H301.763ZM302.937 202.907C303.739 204.485 304.868 205.717 306.325 206.567L307.333 204.839C306.233 204.198 305.362 203.264 304.72 202.001L302.937 202.907ZM306.331 206.57C307.782 207.403 309.444 207.804 311.286 207.804V205.804C309.741 205.804 308.432 205.471 307.327 204.836L306.331 206.57ZM311.286 207.804C312.479 207.804 313.587 207.637 314.596 207.287L313.941 205.397C313.175 205.663 312.294 205.804 311.286 205.804V207.804ZM314.603 207.285C315.629 206.92 316.529 206.374 317.288 205.642L315.901 204.202C315.358 204.725 314.707 205.125 313.934 205.4L314.603 207.285ZM317.295 205.635C318.061 204.883 318.639 203.962 319.04 202.894L317.167 202.191C316.858 203.017 316.43 203.682 315.894 204.208L317.295 205.635ZM317.833 203.505L321.882 204.642L322.422 202.716L318.374 201.58L317.833 203.505ZM321.197 203.383C320.818 204.605 320.183 205.676 319.284 206.606L320.723 207.996C321.837 206.843 322.634 205.499 323.107 203.975L321.197 203.383ZM319.288 206.602C318.391 207.521 317.271 208.251 315.91 208.785L316.64 210.647C318.238 210.021 319.604 209.141 320.719 208L319.288 206.602ZM315.916 208.782C314.568 209.3 313.029 209.568 311.286 209.568V211.568C313.235 211.568 315.022 211.268 316.633 210.649L315.916 208.782ZM332.273 209.663L331.847 210.567L331.853 210.57L332.273 209.663ZM328.917 206.804L328.082 207.355L328.085 207.359L328.917 206.804ZM328.597 198.459L329.442 198.994L329.445 198.99L328.597 198.459ZM334.474 194.908L334.688 195.885L334.695 195.883L334.474 194.908ZM338.256 194.233L338.129 193.241L338.127 193.241L338.256 194.233ZM342.287 193.754L342.39 194.748L342.4 194.747L342.287 193.754ZM344.56 193.168L344.07 192.295L344.061 192.301L344.56 193.168ZM343.849 187.521L343.134 188.22L343.138 188.224L343.849 187.521ZM334.83 187.379L335.44 188.171L334.83 187.379ZM332.433 190.185L332.096 191.126L332.955 191.433L333.34 190.606L332.433 190.185ZM328.455 188.764L327.536 188.37L327.117 189.348L328.119 189.706L328.455 188.764ZM331.296 184.893L331.911 185.682L331.912 185.681L331.296 184.893ZM335.202 182.94L335.455 183.908L335.46 183.907L335.202 182.94ZM342.411 182.692L342.227 183.675L342.239 183.677L342.411 182.692ZM345.732 183.952L345.217 184.81L345.221 184.812L345.732 183.952ZM348.413 186.847L347.537 187.329V187.329L348.413 186.847ZM349.478 210V211H350.478V210H349.478ZM345.288 210H344.288V211H345.288V210ZM345.288 206.307H346.288V205.307H345.288V206.307ZM345.075 206.307V205.307H344.445L344.173 205.874L345.075 206.307ZM343.654 208.207L344.367 208.907L343.654 208.207ZM341.009 209.929L340.613 209.01L341.009 209.929ZM341.808 205.898L341.314 205.029L341.31 205.031L341.808 205.898ZM344.4 203.377L343.533 202.879L343.529 202.886L344.4 203.377ZM345.288 196.293H346.288V193.531L344.519 195.652L345.288 196.293ZM344.116 196.879L344.385 197.842L344.398 197.838L344.116 196.879ZM342.056 197.322L342.208 198.311L342.221 198.309L342.056 197.322ZM339.801 197.642L339.915 198.636L339.929 198.634L339.801 197.642ZM338.043 197.855L338.173 198.847L338.174 198.847L338.043 197.855ZM334.989 198.548L335.302 199.497L335.309 199.495L334.989 198.548ZM332.717 199.95L331.982 199.271L331.982 199.272L332.717 199.95ZM333.48 205.774L332.911 206.596L332.921 206.603L333.48 205.774ZM336.978 209.639C335.378 209.639 333.955 209.339 332.692 208.755L331.853 210.57C333.408 211.289 335.121 211.639 336.978 211.639V209.639ZM332.699 208.758C331.447 208.169 330.472 207.334 329.749 206.249L328.085 207.359C329.019 208.76 330.281 209.83 331.847 210.567L332.699 208.758ZM329.751 206.253C329.049 205.189 328.674 203.874 328.674 202.259H326.674C326.674 204.194 327.128 205.909 328.082 207.355L329.751 206.253ZM328.674 202.259C328.674 200.82 328.958 199.757 329.442 198.994L327.753 197.923C327.005 199.102 326.674 200.572 326.674 202.259H328.674ZM329.445 198.99C329.968 198.155 330.661 197.505 331.541 197.03L330.59 195.271C329.41 195.908 328.458 196.797 327.75 197.928L329.445 198.99ZM331.541 197.03C332.482 196.522 333.529 196.139 334.688 195.885L334.26 193.931C332.934 194.221 331.709 194.666 330.59 195.271L331.541 197.03ZM334.695 195.883C335.92 195.606 337.15 195.386 338.386 195.225L338.127 193.241C336.829 193.411 335.538 193.642 334.254 193.932L334.695 195.883ZM338.384 195.225C340.037 195.012 341.372 194.854 342.39 194.748L342.184 192.759C341.143 192.867 339.79 193.028 338.129 193.241L338.384 195.225ZM342.4 194.747C343.475 194.625 344.401 194.412 345.058 194.035L344.061 192.301C343.771 192.468 343.182 192.645 342.174 192.76L342.4 194.747ZM345.049 194.04C345.922 193.55 346.288 192.693 346.288 191.747H344.288C344.288 192.151 344.168 192.241 344.07 192.295L345.049 194.04ZM346.288 191.747V191.605H344.288V191.747H346.288ZM346.288 191.605C346.288 189.668 345.753 188.025 344.561 186.819L343.138 188.224C343.863 188.958 344.288 190.038 344.288 191.605H346.288ZM344.565 186.823C343.362 185.59 341.618 185.065 339.535 185.065V187.065C341.31 187.065 342.443 187.511 343.134 188.22L344.565 186.823ZM339.535 185.065C337.399 185.065 335.588 185.532 334.219 186.587L335.44 188.171C336.344 187.474 337.67 187.065 339.535 187.065V185.065ZM334.219 186.587C332.993 187.532 332.072 188.586 331.526 189.764L333.34 190.606C333.716 189.795 334.393 188.978 335.44 188.171L334.219 186.587ZM332.769 189.243L328.792 187.822L328.119 189.706L332.096 191.126L332.769 189.243ZM329.374 189.158C330.031 187.625 330.885 186.483 331.911 185.682L330.681 184.105C329.34 185.151 328.299 186.589 327.536 188.37L329.374 189.158ZM331.912 185.681C333.005 184.827 334.184 184.239 335.454 183.908L334.95 181.973C333.404 182.376 331.979 183.09 330.68 184.106L331.912 185.681ZM335.46 183.907C336.802 183.549 338.113 183.372 339.393 183.372V181.372C337.927 181.372 336.443 181.574 334.945 181.974L335.46 183.907ZM339.393 183.372C340.191 183.372 341.133 183.47 342.227 183.675L342.596 181.709C341.416 181.488 340.347 181.372 339.393 181.372V183.372ZM342.239 183.677C343.258 183.855 344.25 184.23 345.217 184.81L346.246 183.095C345.082 182.397 343.861 181.931 342.584 181.707L342.239 183.677ZM345.221 184.812C346.12 185.346 346.897 186.167 347.537 187.329L349.289 186.364C348.508 184.946 347.498 183.838 346.242 183.092L345.221 184.812ZM347.537 187.329C348.136 188.418 348.478 189.96 348.478 192.031H350.478C350.478 189.77 350.11 187.856 349.289 186.364L347.537 187.329ZM348.478 192.031V210H350.478V192.031H348.478ZM349.478 209H345.288V211H349.478V209ZM346.288 210V206.307H344.288V210H346.288ZM345.288 205.307H345.075V207.307H345.288V205.307ZM344.173 205.874C343.952 206.334 343.558 206.878 342.941 207.506L344.367 208.907C345.076 208.186 345.628 207.464 345.976 206.74L344.173 205.874ZM342.941 207.506C342.39 208.067 341.626 208.575 340.613 209.01L341.404 210.848C342.593 210.336 343.593 209.696 344.367 208.907L342.941 207.506ZM340.613 209.01C339.671 209.416 338.47 209.639 336.978 209.639V211.639C338.658 211.639 340.145 211.389 341.404 210.848L340.613 209.01ZM337.617 207.875C339.403 207.875 340.982 207.524 342.305 206.766L341.31 205.031C340.361 205.575 339.145 205.875 337.617 205.875V207.875ZM342.301 206.768C343.588 206.038 344.592 205.074 345.271 203.868L343.529 202.886C343.048 203.74 342.323 204.456 341.314 205.029L342.301 206.768ZM345.267 203.875C345.942 202.701 346.288 201.447 346.288 200.128H344.288C344.288 201.081 344.042 201.993 343.533 202.879L345.267 203.875ZM346.288 200.128V196.293H344.288V200.128H346.288ZM344.519 195.652C344.555 195.61 344.549 195.637 344.414 195.704C344.289 195.767 344.101 195.84 343.834 195.919L344.398 197.838C344.734 197.739 345.043 197.626 345.309 197.493C345.564 197.366 345.843 197.189 346.056 196.933L344.519 195.652ZM343.846 195.916C343.297 196.069 342.647 196.21 341.892 196.336L342.221 198.309C343.028 198.174 343.751 198.019 344.385 197.842L343.846 195.916ZM341.904 196.334C341.142 196.451 340.399 196.557 339.673 196.65L339.929 198.634C340.671 198.538 341.431 198.43 342.208 198.311L341.904 196.334ZM339.687 196.649C338.962 196.732 338.37 196.803 337.913 196.864L338.174 198.847C338.616 198.788 339.196 198.718 339.915 198.636L339.687 196.649ZM337.914 196.864C336.766 197.013 335.684 197.258 334.67 197.6L335.309 199.495C336.188 199.198 337.142 198.981 338.173 198.847L337.914 196.864ZM334.677 197.598C333.605 197.95 332.694 198.502 331.982 199.271L333.451 200.629C333.899 200.144 334.503 199.76 335.302 199.497L334.677 197.598ZM331.982 199.272C331.2 200.118 330.864 201.226 330.864 202.472H332.864C332.864 201.587 333.096 201.013 333.451 200.629L331.982 199.272ZM330.864 202.472C330.864 204.213 331.531 205.641 332.911 206.596L334.049 204.952C333.275 204.416 332.864 203.642 332.864 202.472H330.864ZM332.921 206.603C334.215 207.475 335.803 207.875 337.617 207.875V205.875C336.093 205.875 334.923 205.541 334.039 204.945L332.921 206.603ZM361.317 210V211H362.317V210H361.317ZM357.126 210H356.126V211H357.126V210ZM357.126 182.727V181.727H356.126V182.727H357.126ZM361.175 182.727H362.175V181.727H361.175V182.727ZM361.175 186.989H360.175V187.989H361.175V186.989ZM361.53 186.989V187.989H362.169L362.438 187.408L361.53 186.989ZM364.442 183.651L364.984 184.491L364.989 184.487L364.442 183.651ZM374.331 183.509L373.852 184.386L373.857 184.389L374.331 183.509ZM377.563 186.918L376.67 187.368L376.671 187.37L377.563 186.918ZM378.717 210V211H379.717V210H378.717ZM374.527 210H373.527V211H374.527V210ZM372.858 187.947L372.122 188.625L372.126 188.629L372.858 187.947ZM364.69 187.006L364.208 186.13L364.204 186.133L364.69 187.006ZM362.222 189.545L361.343 189.069L362.222 189.545ZM360.317 193.594V210H362.317V193.594H360.317ZM361.317 209H357.126V211H361.317V209ZM358.126 210V182.727H356.126V210H358.126ZM357.126 183.727H361.175V181.727H357.126V183.727ZM360.175 182.727V186.989H362.175V182.727H360.175ZM361.175 187.989H361.53V185.989H361.175V187.989ZM362.438 187.408C362.996 186.198 363.838 185.23 364.984 184.491L363.899 182.81C362.441 183.752 361.342 185.01 360.622 186.57L362.438 187.408ZM364.989 184.487C366.084 183.771 367.557 183.372 369.484 183.372V181.372C367.292 181.372 365.404 181.826 363.894 182.814L364.989 184.487ZM369.484 183.372C371.192 183.372 372.637 183.721 373.852 184.386L374.811 182.631C373.256 181.78 371.47 181.372 369.484 181.372V183.372ZM373.857 184.389C375.046 185.029 375.984 186.007 376.67 187.368L378.456 186.468C377.603 184.774 376.387 183.479 374.806 182.628L373.857 184.389ZM376.671 187.37C377.348 188.704 377.717 190.453 377.717 192.67H379.717C379.717 190.248 379.316 188.162 378.455 186.465L376.671 187.37ZM377.717 192.67V210H379.717V192.67H377.717ZM378.717 209H374.527V211H378.717V209ZM375.527 210V192.955H373.527V210H375.527ZM375.527 192.955C375.527 190.64 374.923 188.699 373.59 187.266L372.126 188.629C373.018 189.587 373.527 190.984 373.527 192.955H375.527ZM373.593 187.27C372.257 185.819 370.442 185.136 368.277 185.136V187.136C369.994 187.136 371.234 187.661 372.122 188.625L373.593 187.27ZM368.277 185.136C366.79 185.136 365.425 185.46 364.208 186.13L365.172 187.882C366.062 187.393 367.089 187.136 368.277 187.136V185.136ZM364.204 186.133C362.986 186.811 362.032 187.8 361.343 189.069L363.101 190.022C363.62 189.066 364.311 188.362 365.177 187.88L364.204 186.133ZM361.343 189.069C360.642 190.36 360.317 191.882 360.317 193.594H362.317C362.317 192.133 362.594 190.956 363.101 190.022L361.343 189.069ZM405.692 188.835L405.965 189.797L406.974 189.512L406.641 188.517L405.692 188.835ZM401.928 189.901L400.993 190.254L401.317 191.113L402.201 190.863L401.928 189.901ZM400.881 188.072L400.079 188.669L400.085 188.678L400.092 188.687L400.881 188.072ZM399.034 186.58L399.481 185.686L399.034 186.58ZM391.861 187.148L392.428 187.972L392.43 187.971L391.861 187.148ZM391.346 192.511L390.723 193.293L391.346 192.511ZM394.897 194.02L394.654 194.99L394.658 194.991L394.897 194.02ZM398.945 195.014L398.707 195.985L398.709 195.986L398.945 195.014ZM404.396 197.731L403.682 198.431L403.686 198.434L404.396 197.731ZM404.84 206.591L404.033 206.001L404.029 206.006L404.84 206.591ZM388.629 208.757L389.181 207.923L388.629 208.757ZM385.167 203.466L384.924 202.496L383.991 202.729L384.188 203.671L385.167 203.466ZM389.144 202.472L390.112 202.222L389.864 201.261L388.902 201.501L389.144 202.472ZM391.293 205.774L390.721 206.595L390.725 206.598L391.293 205.774ZM400.117 205.632L400.702 206.443L400.704 206.442L400.117 205.632ZM400.863 200.234L400.162 200.948L400.169 200.954L400.863 200.234ZM397.809 198.778L397.581 199.752L397.582 199.752L397.809 198.778ZM393.263 197.713L393.033 198.686L393.035 198.687L393.263 197.713ZM387.759 194.961L387.025 195.64L387.032 195.647L387.759 194.961ZM387.315 186.172L386.511 185.577L386.508 185.582L387.315 186.172ZM390.884 183.384L390.477 182.471L390.475 182.472L390.884 183.384ZM402.39 184.148L401.78 184.94L401.783 184.943L402.39 184.148ZM405.42 187.873L401.656 188.938L402.201 190.863L405.965 189.797L405.42 187.873ZM402.864 189.548C402.588 188.815 402.185 188.119 401.669 187.457L400.092 188.687C400.499 189.209 400.795 189.731 400.993 190.254L402.864 189.548ZM401.683 187.474C401.125 186.727 400.38 186.135 399.481 185.686L398.587 187.475C399.251 187.807 399.736 188.21 400.079 188.669L401.683 187.474ZM399.481 185.686C398.517 185.204 397.35 184.994 396.033 184.994V186.994C397.155 186.994 397.988 187.175 398.587 187.475L399.481 185.686ZM396.033 184.994C394.209 184.994 392.607 185.416 391.292 186.326L392.43 187.971C393.34 187.342 394.52 186.994 396.033 186.994V184.994ZM391.294 186.325C389.966 187.238 389.21 188.491 389.21 190.043H391.21C391.21 189.25 391.554 188.574 392.428 187.972L391.294 186.325ZM389.21 190.043C389.21 191.362 389.707 192.483 390.723 193.293L391.969 191.729C391.469 191.33 391.21 190.806 391.21 190.043H389.21ZM390.723 193.293C391.645 194.028 392.991 194.574 394.654 194.99L395.14 193.05C393.583 192.661 392.562 192.201 391.969 191.729L390.723 193.293ZM394.658 194.991L398.707 195.985L399.184 194.043L395.136 193.049L394.658 194.991ZM398.709 195.986C401.046 196.553 402.665 197.394 403.682 198.431L405.11 197.031C403.736 195.629 401.721 194.659 399.181 194.042L398.709 195.986ZM403.686 198.434C404.673 199.431 405.19 200.723 405.19 202.401H407.19C407.19 200.266 406.511 198.445 405.107 197.027L403.686 198.434ZM405.19 202.401C405.19 203.757 404.804 204.946 404.033 206.001L405.648 207.181C406.676 205.774 407.19 204.17 407.19 202.401H405.19ZM404.029 206.006C403.26 207.073 402.167 207.94 400.705 208.589L401.518 210.417C403.252 209.646 404.645 208.571 405.651 207.176L404.029 206.006ZM400.705 208.589C399.259 209.232 397.544 209.568 395.536 209.568V211.568C397.766 211.568 399.768 211.194 401.518 210.417L400.705 208.589ZM395.536 209.568C392.898 209.568 390.801 208.996 389.181 207.923L388.077 209.591C390.103 210.933 392.611 211.568 395.536 211.568V209.568ZM389.181 207.923C387.597 206.874 386.582 205.347 386.146 203.261L384.188 203.671C384.722 206.225 386.015 208.225 388.077 209.591L389.181 207.923ZM385.409 204.436L389.387 203.442L388.902 201.501L384.924 202.496L385.409 204.436ZM388.176 202.721C388.603 204.377 389.437 205.7 390.721 206.595L391.864 204.954C391.041 204.38 390.443 203.502 390.112 202.222L388.176 202.721ZM390.725 206.598C392.004 207.479 393.611 207.875 395.465 207.875V205.875C393.886 205.875 392.712 205.537 391.86 204.951L390.725 206.598ZM395.465 207.875C397.551 207.875 399.33 207.433 400.702 206.443L399.532 204.821C398.608 205.488 397.286 205.875 395.465 205.875V207.875ZM400.704 206.442C402.059 205.46 402.857 204.179 402.857 202.614H400.857C400.857 203.392 400.496 204.123 399.53 204.822L400.704 206.442ZM402.857 202.614C402.857 201.404 402.422 200.348 401.557 199.515L400.169 200.954C400.63 201.399 400.857 201.93 400.857 202.614H402.857ZM401.564 199.521C400.719 198.691 399.502 198.146 398.036 197.804L397.582 199.752C398.862 200.05 399.682 200.476 400.162 200.948L401.564 199.521ZM398.037 197.805L393.492 196.739L393.035 198.687L397.581 199.752L398.037 197.805ZM393.494 196.74C391.097 196.172 389.473 195.321 388.487 194.275L387.032 195.647C388.389 197.087 390.435 198.07 393.033 198.686L393.494 196.74ZM388.493 194.282C387.522 193.232 387.019 191.914 387.019 190.256H385.019C385.019 192.362 385.676 194.181 387.025 195.64L388.493 194.282ZM387.019 190.256C387.019 188.918 387.39 187.765 388.123 186.761L386.508 185.582C385.512 186.946 385.019 188.516 385.019 190.256H387.019ZM388.119 186.767C388.881 185.737 389.928 184.91 391.294 184.297L390.475 182.472C388.834 183.208 387.501 184.24 386.512 185.577L388.119 186.767ZM391.291 184.298C392.66 183.688 394.234 183.372 396.033 183.372V181.372C393.997 181.372 392.139 181.731 390.477 182.471L391.291 184.298ZM396.033 183.372C398.596 183.372 400.473 183.935 401.78 184.94L403 183.355C401.229 181.993 398.868 181.372 396.033 181.372V183.372ZM401.783 184.943C403.167 185.999 404.154 187.391 404.744 189.153L406.641 188.517C405.929 186.396 404.714 184.664 402.997 183.353L401.783 184.943Z" fill="black" mask="url(#path-4-outside-1_38_2)"/>
</g>
<g filter="url(#filter3_d_38_2)">
<mask id="path-6-outside-2_38_2" maskUnits="userSpaceOnUse" x="194" y="391" width="225" height="51" fill="black">
<rect fill="white" x="194" y="391" width="225" height="51"/>
<path d="M195.976 430V393.636H200.379V409.83H219.768V393.636H224.172V430H219.768V413.736H200.379V430H195.976ZM232.419 430V402.727H236.61V430H232.419ZM234.55 398.182C233.733 398.182 233.029 397.904 232.437 397.347C231.857 396.791 231.567 396.122 231.567 395.341C231.567 394.56 231.857 393.891 232.437 393.335C233.029 392.778 233.733 392.5 234.55 392.5C235.367 392.5 236.065 392.778 236.645 393.335C237.237 393.891 237.533 394.56 237.533 395.341C237.533 396.122 237.237 396.791 236.645 397.347C236.065 397.904 235.367 398.182 234.55 398.182ZM255.719 430.568C253.091 430.568 250.824 429.988 248.919 428.828C247.025 427.656 245.563 426.023 244.533 423.928C243.515 421.821 243.006 419.37 243.006 416.577C243.006 413.783 243.515 411.321 244.533 409.19C245.563 407.048 246.995 405.379 248.83 404.183C250.676 402.976 252.831 402.372 255.293 402.372C256.713 402.372 258.116 402.609 259.501 403.082C260.886 403.556 262.147 404.325 263.283 405.391C264.419 406.444 265.325 407.841 266 409.581C266.674 411.321 267.012 413.464 267.012 416.009V417.784H245.989V414.162H262.75C262.75 412.623 262.443 411.25 261.827 410.043C261.223 408.835 260.359 407.882 259.235 407.184C258.122 406.486 256.808 406.136 255.293 406.136C253.624 406.136 252.18 406.551 250.961 407.379C249.753 408.196 248.824 409.261 248.173 410.575C247.522 411.889 247.196 413.298 247.196 414.801V417.216C247.196 419.276 247.551 421.022 248.262 422.454C248.984 423.874 249.984 424.957 251.262 425.703C252.541 426.437 254.026 426.804 255.719 426.804C256.82 426.804 257.814 426.65 258.702 426.342C259.602 426.023 260.377 425.549 261.028 424.922C261.679 424.283 262.182 423.49 262.537 422.543L266.586 423.679C266.159 425.052 265.443 426.259 264.437 427.301C263.431 428.331 262.188 429.136 260.708 429.716C259.229 430.284 257.566 430.568 255.719 430.568ZM273.386 430V402.727H277.434V406.847H277.718C278.216 405.497 279.115 404.402 280.417 403.562C281.719 402.721 283.187 402.301 284.821 402.301C285.128 402.301 285.513 402.307 285.975 402.319C286.436 402.331 286.786 402.348 287.022 402.372V406.634C286.88 406.598 286.555 406.545 286.046 406.474C285.549 406.391 285.022 406.349 284.466 406.349C283.14 406.349 281.956 406.628 280.914 407.184C279.885 407.728 279.068 408.486 278.464 409.457C277.872 410.415 277.576 411.51 277.576 412.741V430H273.386ZM300.015 430.639C298.287 430.639 296.718 430.314 295.31 429.663C293.901 429 292.783 428.047 291.954 426.804C291.125 425.549 290.711 424.034 290.711 422.259C290.711 420.696 291.019 419.429 291.634 418.459C292.25 417.476 293.073 416.707 294.102 416.151C295.132 415.594 296.269 415.18 297.512 414.908C298.766 414.624 300.027 414.399 301.294 414.233C302.951 414.02 304.294 413.86 305.324 413.754C306.366 413.635 307.123 413.44 307.597 413.168C308.082 412.895 308.325 412.422 308.325 411.747V411.605C308.325 409.853 307.845 408.492 306.887 407.521C305.94 406.551 304.501 406.065 302.572 406.065C300.571 406.065 299.003 406.503 297.867 407.379C296.73 408.255 295.931 409.19 295.47 410.185L291.492 408.764C292.203 407.107 293.15 405.817 294.333 404.893C295.529 403.958 296.831 403.307 298.24 402.94C299.66 402.562 301.057 402.372 302.43 402.372C303.306 402.372 304.312 402.479 305.448 402.692C306.597 402.893 307.703 403.313 308.769 403.952C309.846 404.592 310.74 405.556 311.45 406.847C312.16 408.137 312.515 409.865 312.515 412.031V430H308.325V426.307H308.112C307.828 426.899 307.354 427.532 306.691 428.207C306.028 428.881 305.146 429.455 304.046 429.929C302.945 430.402 301.601 430.639 300.015 430.639ZM300.654 426.875C302.311 426.875 303.708 426.549 304.845 425.898C305.993 425.247 306.857 424.407 307.437 423.377C308.029 422.347 308.325 421.264 308.325 420.128V416.293C308.147 416.506 307.757 416.701 307.153 416.879C306.561 417.044 305.874 417.192 305.093 417.322C304.324 417.441 303.572 417.547 302.838 417.642C302.116 417.725 301.53 417.796 301.08 417.855C299.991 417.997 298.973 418.228 298.026 418.548C297.091 418.855 296.334 419.323 295.754 419.95C295.186 420.566 294.901 421.406 294.901 422.472C294.901 423.928 295.44 425.028 296.517 425.774C297.606 426.508 298.985 426.875 300.654 426.875ZM320.163 430V402.727H324.212V406.847H324.496C324.993 405.497 325.893 404.402 327.195 403.562C328.497 402.721 329.964 402.301 331.598 402.301C331.906 402.301 332.29 402.307 332.752 402.319C333.214 402.331 333.563 402.348 333.8 402.372V406.634C333.658 406.598 333.332 406.545 332.823 406.474C332.326 406.391 331.799 406.349 331.243 406.349C329.917 406.349 328.733 406.628 327.692 407.184C326.662 407.728 325.845 408.486 325.241 409.457C324.65 410.415 324.354 411.51 324.354 412.741V430H320.163ZM349.016 430.568C346.46 430.568 344.258 429.964 342.411 428.757C340.565 427.55 339.144 425.887 338.15 423.768C337.156 421.649 336.658 419.228 336.658 416.506C336.658 413.736 337.167 411.291 338.185 409.173C339.215 407.042 340.647 405.379 342.482 404.183C344.329 402.976 346.483 402.372 348.945 402.372C350.863 402.372 352.591 402.727 354.13 403.438C355.669 404.148 356.929 405.142 357.912 406.42C358.894 407.699 359.504 409.19 359.741 410.895H355.55C355.231 409.652 354.521 408.551 353.42 407.592C352.331 406.622 350.863 406.136 349.016 406.136C347.383 406.136 345.951 406.562 344.719 407.415C343.5 408.255 342.547 409.445 341.861 410.984C341.186 412.511 340.849 414.304 340.849 416.364C340.849 418.471 341.18 420.305 341.843 421.868C342.518 423.43 343.465 424.644 344.684 425.508C345.915 426.372 347.359 426.804 349.016 426.804C350.105 426.804 351.094 426.615 351.982 426.236C352.869 425.857 353.621 425.312 354.237 424.602C354.852 423.892 355.29 423.04 355.55 422.045H359.741C359.504 423.655 358.918 425.105 357.983 426.396C357.06 427.674 355.835 428.692 354.308 429.45C352.792 430.195 351.029 430.568 349.016 430.568ZM370.057 413.594V430H365.866V393.636H370.057V406.989H370.412C371.051 405.58 372.01 404.461 373.288 403.633C374.579 402.792 376.295 402.372 378.438 402.372C380.296 402.372 381.924 402.745 383.32 403.491C384.717 404.225 385.8 405.355 386.57 406.882C387.351 408.397 387.741 410.327 387.741 412.67V430H383.551V412.955C383.551 410.788 382.989 409.113 381.864 407.93C380.752 406.734 379.207 406.136 377.23 406.136C375.857 406.136 374.626 406.426 373.537 407.006C372.46 407.586 371.607 408.433 370.98 409.545C370.365 410.658 370.057 412.008 370.057 413.594ZM397.13 440.227C396.42 440.227 395.786 440.168 395.23 440.05C394.674 439.943 394.289 439.837 394.076 439.73L395.141 436.037C396.159 436.297 397.059 436.392 397.84 436.321C398.621 436.25 399.314 435.901 399.917 435.273C400.533 434.658 401.095 433.658 401.604 432.273L402.385 430.142L392.3 402.727H396.846L404.374 424.46H404.658L412.187 402.727H416.732L405.155 433.977C404.635 435.386 403.989 436.552 403.22 437.475C402.451 438.41 401.557 439.103 400.539 439.553C399.533 440.002 398.396 440.227 397.13 440.227Z"/>
</mask>
<path d="M195.976 430V393.636H200.379V409.83H219.768V393.636H224.172V430H219.768V413.736H200.379V430H195.976ZM232.419 430V402.727H236.61V430H232.419ZM234.55 398.182C233.733 398.182 233.029 397.904 232.437 397.347C231.857 396.791 231.567 396.122 231.567 395.341C231.567 394.56 231.857 393.891 232.437 393.335C233.029 392.778 233.733 392.5 234.55 392.5C235.367 392.5 236.065 392.778 236.645 393.335C237.237 393.891 237.533 394.56 237.533 395.341C237.533 396.122 237.237 396.791 236.645 397.347C236.065 397.904 235.367 398.182 234.55 398.182ZM255.719 430.568C253.091 430.568 250.824 429.988 248.919 428.828C247.025 427.656 245.563 426.023 244.533 423.928C243.515 421.821 243.006 419.37 243.006 416.577C243.006 413.783 243.515 411.321 244.533 409.19C245.563 407.048 246.995 405.379 248.83 404.183C250.676 402.976 252.831 402.372 255.293 402.372C256.713 402.372 258.116 402.609 259.501 403.082C260.886 403.556 262.147 404.325 263.283 405.391C264.419 406.444 265.325 407.841 266 409.581C266.674 411.321 267.012 413.464 267.012 416.009V417.784H245.989V414.162H262.75C262.75 412.623 262.443 411.25 261.827 410.043C261.223 408.835 260.359 407.882 259.235 407.184C258.122 406.486 256.808 406.136 255.293 406.136C253.624 406.136 252.18 406.551 250.961 407.379C249.753 408.196 248.824 409.261 248.173 410.575C247.522 411.889 247.196 413.298 247.196 414.801V417.216C247.196 419.276 247.551 421.022 248.262 422.454C248.984 423.874 249.984 424.957 251.262 425.703C252.541 426.437 254.026 426.804 255.719 426.804C256.82 426.804 257.814 426.65 258.702 426.342C259.602 426.023 260.377 425.549 261.028 424.922C261.679 424.283 262.182 423.49 262.537 422.543L266.586 423.679C266.159 425.052 265.443 426.259 264.437 427.301C263.431 428.331 262.188 429.136 260.708 429.716C259.229 430.284 257.566 430.568 255.719 430.568ZM273.386 430V402.727H277.434V406.847H277.718C278.216 405.497 279.115 404.402 280.417 403.562C281.719 402.721 283.187 402.301 284.821 402.301C285.128 402.301 285.513 402.307 285.975 402.319C286.436 402.331 286.786 402.348 287.022 402.372V406.634C286.88 406.598 286.555 406.545 286.046 406.474C285.549 406.391 285.022 406.349 284.466 406.349C283.14 406.349 281.956 406.628 280.914 407.184C279.885 407.728 279.068 408.486 278.464 409.457C277.872 410.415 277.576 411.51 277.576 412.741V430H273.386ZM300.015 430.639C298.287 430.639 296.718 430.314 295.31 429.663C293.901 429 292.783 428.047 291.954 426.804C291.125 425.549 290.711 424.034 290.711 422.259C290.711 420.696 291.019 419.429 291.634 418.459C292.25 417.476 293.073 416.707 294.102 416.151C295.132 415.594 296.269 415.18 297.512 414.908C298.766 414.624 300.027 414.399 301.294 414.233C302.951 414.02 304.294 413.86 305.324 413.754C306.366 413.635 307.123 413.44 307.597 413.168C308.082 412.895 308.325 412.422 308.325 411.747V411.605C308.325 409.853 307.845 408.492 306.887 407.521C305.94 406.551 304.501 406.065 302.572 406.065C300.571 406.065 299.003 406.503 297.867 407.379C296.73 408.255 295.931 409.19 295.47 410.185L291.492 408.764C292.203 407.107 293.15 405.817 294.333 404.893C295.529 403.958 296.831 403.307 298.24 402.94C299.66 402.562 301.057 402.372 302.43 402.372C303.306 402.372 304.312 402.479 305.448 402.692C306.597 402.893 307.703 403.313 308.769 403.952C309.846 404.592 310.74 405.556 311.45 406.847C312.16 408.137 312.515 409.865 312.515 412.031V430H308.325V426.307H308.112C307.828 426.899 307.354 427.532 306.691 428.207C306.028 428.881 305.146 429.455 304.046 429.929C302.945 430.402 301.601 430.639 300.015 430.639ZM300.654 426.875C302.311 426.875 303.708 426.549 304.845 425.898C305.993 425.247 306.857 424.407 307.437 423.377C308.029 422.347 308.325 421.264 308.325 420.128V416.293C308.147 416.506 307.757 416.701 307.153 416.879C306.561 417.044 305.874 417.192 305.093 417.322C304.324 417.441 303.572 417.547 302.838 417.642C302.116 417.725 301.53 417.796 301.08 417.855C299.991 417.997 298.973 418.228 298.026 418.548C297.091 418.855 296.334 419.323 295.754 419.95C295.186 420.566 294.901 421.406 294.901 422.472C294.901 423.928 295.44 425.028 296.517 425.774C297.606 426.508 298.985 426.875 300.654 426.875ZM320.163 430V402.727H324.212V406.847H324.496C324.993 405.497 325.893 404.402 327.195 403.562C328.497 402.721 329.964 402.301 331.598 402.301C331.906 402.301 332.29 402.307 332.752 402.319C333.214 402.331 333.563 402.348 333.8 402.372V406.634C333.658 406.598 333.332 406.545 332.823 406.474C332.326 406.391 331.799 406.349 331.243 406.349C329.917 406.349 328.733 406.628 327.692 407.184C326.662 407.728 325.845 408.486 325.241 409.457C324.65 410.415 324.354 411.51 324.354 412.741V430H320.163ZM349.016 430.568C346.46 430.568 344.258 429.964 342.411 428.757C340.565 427.55 339.144 425.887 338.15 423.768C337.156 421.649 336.658 419.228 336.658 416.506C336.658 413.736 337.167 411.291 338.185 409.173C339.215 407.042 340.647 405.379 342.482 404.183C344.329 402.976 346.483 402.372 348.945 402.372C350.863 402.372 352.591 402.727 354.13 403.438C355.669 404.148 356.929 405.142 357.912 406.42C358.894 407.699 359.504 409.19 359.741 410.895H355.55C355.231 409.652 354.521 408.551 353.42 407.592C352.331 406.622 350.863 406.136 349.016 406.136C347.383 406.136 345.951 406.562 344.719 407.415C343.5 408.255 342.547 409.445 341.861 410.984C341.186 412.511 340.849 414.304 340.849 416.364C340.849 418.471 341.18 420.305 341.843 421.868C342.518 423.43 343.465 424.644 344.684 425.508C345.915 426.372 347.359 426.804 349.016 426.804C350.105 426.804 351.094 426.615 351.982 426.236C352.869 425.857 353.621 425.312 354.237 424.602C354.852 423.892 355.29 423.04 355.55 422.045H359.741C359.504 423.655 358.918 425.105 357.983 426.396C357.06 427.674 355.835 428.692 354.308 429.45C352.792 430.195 351.029 430.568 349.016 430.568ZM370.057 413.594V430H365.866V393.636H370.057V406.989H370.412C371.051 405.58 372.01 404.461 373.288 403.633C374.579 402.792 376.295 402.372 378.438 402.372C380.296 402.372 381.924 402.745 383.32 403.491C384.717 404.225 385.8 405.355 386.57 406.882C387.351 408.397 387.741 410.327 387.741 412.67V430H383.551V412.955C383.551 410.788 382.989 409.113 381.864 407.93C380.752 406.734 379.207 406.136 377.23 406.136C375.857 406.136 374.626 406.426 373.537 407.006C372.46 407.586 371.607 408.433 370.98 409.545C370.365 410.658 370.057 412.008 370.057 413.594ZM397.13 440.227C396.42 440.227 395.786 440.168 395.23 440.05C394.674 439.943 394.289 439.837 394.076 439.73L395.141 436.037C396.159 436.297 397.059 436.392 397.84 436.321C398.621 436.25 399.314 435.901 399.917 435.273C400.533 434.658 401.095 433.658 401.604 432.273L402.385 430.142L392.3 402.727H396.846L404.374 424.46H404.658L412.187 402.727H416.732L405.155 433.977C404.635 435.386 403.989 436.552 403.22 437.475C402.451 438.41 401.557 439.103 400.539 439.553C399.533 440.002 398.396 440.227 397.13 440.227Z" fill="#FBDEFA"/>
<path d="M195.976 430H194.976V431H195.976V430ZM195.976 393.636V392.636H194.976V393.636H195.976ZM200.379 393.636H201.379V392.636H200.379V393.636ZM200.379 409.83H199.379V410.83H200.379V409.83ZM219.768 409.83V410.83H220.768V409.83H219.768ZM219.768 393.636V392.636H218.768V393.636H219.768ZM224.172 393.636H225.172V392.636H224.172V393.636ZM224.172 430V431H225.172V430H224.172ZM219.768 430H218.768V431H219.768V430ZM219.768 413.736H220.768V412.736H219.768V413.736ZM200.379 413.736V412.736H199.379V413.736H200.379ZM200.379 430V431H201.379V430H200.379ZM196.976 430V393.636H194.976V430H196.976ZM195.976 394.636H200.379V392.636H195.976V394.636ZM199.379 393.636V409.83H201.379V393.636H199.379ZM200.379 410.83H219.768V408.83H200.379V410.83ZM220.768 409.83V393.636H218.768V409.83H220.768ZM219.768 394.636H224.172V392.636H219.768V394.636ZM223.172 393.636V430H225.172V393.636H223.172ZM224.172 429H219.768V431H224.172V429ZM220.768 430V413.736H218.768V430H220.768ZM219.768 412.736H200.379V414.736H219.768V412.736ZM199.379 413.736V430H201.379V413.736H199.379ZM200.379 429H195.976V431H200.379V429ZM232.419 430H231.419V431H232.419V430ZM232.419 402.727V401.727H231.419V402.727H232.419ZM236.61 402.727H237.61V401.727H236.61V402.727ZM236.61 430V431H237.61V430H236.61ZM232.437 397.347L231.745 398.069L231.752 398.076L232.437 397.347ZM232.437 393.335L231.752 392.606L231.745 392.613L232.437 393.335ZM236.645 393.335L235.953 394.056L235.96 394.063L236.645 393.335ZM236.645 397.347L235.96 396.619L235.953 396.626L236.645 397.347ZM233.419 430V402.727H231.419V430H233.419ZM232.419 403.727H236.61V401.727H232.419V403.727ZM235.61 402.727V430H237.61V402.727H235.61ZM236.61 429H232.419V431H236.61V429ZM234.55 397.182C233.986 397.182 233.527 397 233.122 396.619L231.752 398.076C232.53 398.808 233.48 399.182 234.55 399.182V397.182ZM233.129 396.626C232.739 396.252 232.567 395.841 232.567 395.341H230.567C230.567 396.403 230.974 397.33 231.745 398.069L233.129 396.626ZM232.567 395.341C232.567 394.841 232.739 394.43 233.129 394.056L231.745 392.613C230.974 393.352 230.567 394.279 230.567 395.341H232.567ZM233.122 394.063C233.527 393.682 233.986 393.5 234.55 393.5V391.5C233.48 391.5 232.531 391.874 231.752 392.606L233.122 394.063ZM234.55 393.5C235.113 393.5 235.562 393.682 235.953 394.056L237.337 392.613C236.568 391.875 235.62 391.5 234.55 391.5V393.5ZM235.96 394.063C236.36 394.439 236.533 394.848 236.533 395.341H238.533C238.533 394.272 238.114 393.343 237.33 392.606L235.96 394.063ZM236.533 395.341C236.533 395.834 236.36 396.243 235.96 396.619L237.33 398.076C238.114 397.339 238.533 396.41 238.533 395.341H236.533ZM235.953 396.626C235.562 397 235.113 397.182 234.55 397.182V399.182C235.62 399.182 236.568 398.807 237.337 398.069L235.953 396.626ZM248.919 428.828L248.392 429.679L248.399 429.682L248.919 428.828ZM244.533 423.928L243.633 424.363L243.636 424.369L244.533 423.928ZM244.533 409.19L243.632 408.757L243.631 408.759L244.533 409.19ZM248.83 404.183L249.376 405.021L249.377 405.02L248.83 404.183ZM259.501 403.082L259.825 402.136L259.501 403.082ZM263.283 405.391L262.599 406.12L262.603 406.124L263.283 405.391ZM266 409.581L266.932 409.219V409.219L266 409.581ZM267.012 417.784V418.784H268.012V417.784H267.012ZM245.989 417.784H244.989V418.784H245.989V417.784ZM245.989 414.162V413.162H244.989V414.162H245.989ZM262.75 414.162V415.162H263.75V414.162H262.75ZM261.827 410.043L260.933 410.49L260.936 410.497L261.827 410.043ZM259.235 407.184L258.703 408.031L258.707 408.033L259.235 407.184ZM250.961 407.379L251.521 408.208L251.523 408.206L250.961 407.379ZM248.173 410.575L247.277 410.131L248.173 410.575ZM248.262 422.454L247.366 422.898L247.37 422.907L248.262 422.454ZM251.262 425.703L250.759 426.567L250.765 426.57L251.262 425.703ZM258.702 426.342L259.03 427.287L259.037 427.285L258.702 426.342ZM261.028 424.922L261.722 425.642L261.729 425.635L261.028 424.922ZM262.537 422.543L262.808 421.58L261.923 421.332L261.601 422.191L262.537 422.543ZM266.586 423.679L267.541 423.975L267.845 422.994L266.856 422.716L266.586 423.679ZM264.437 427.301L265.152 428L265.156 427.996L264.437 427.301ZM260.708 429.716L261.067 430.649L261.073 430.647L260.708 429.716ZM255.719 429.568C253.242 429.568 251.162 429.023 249.439 427.974L248.399 429.682C250.487 430.954 252.941 431.568 255.719 431.568V429.568ZM249.445 427.978C247.719 426.91 246.382 425.422 245.43 423.486L243.636 424.369C244.744 426.624 246.331 428.403 248.393 429.679L249.445 427.978ZM245.433 423.493C244.492 421.545 244.006 419.248 244.006 416.577H242.006C242.006 419.492 242.538 422.096 243.633 424.363L245.433 423.493ZM244.006 416.577C244.006 413.905 244.492 411.595 245.435 409.621L243.631 408.759C242.538 411.047 242.006 413.661 242.006 416.577H244.006ZM245.434 409.624C246.392 407.631 247.707 406.108 249.376 405.021L248.284 403.345C246.283 404.649 244.734 406.464 243.632 408.757L245.434 409.624ZM249.377 405.02C251.043 403.931 253.002 403.372 255.293 403.372V401.372C252.66 401.372 250.31 402.02 248.283 403.346L249.377 405.02ZM255.293 403.372C256.6 403.372 257.894 403.59 259.178 404.029L259.825 402.136C258.339 401.628 256.827 401.372 255.293 401.372V403.372ZM259.178 404.029C260.42 404.453 261.559 405.145 262.599 406.12L263.967 404.661C262.734 403.505 261.352 402.658 259.825 402.136L259.178 404.029ZM262.603 406.124C263.608 407.055 264.436 408.315 265.067 409.942L266.932 409.219C266.213 407.366 265.231 405.833 263.963 404.657L262.603 406.124ZM265.067 409.942C265.684 411.534 266.012 413.545 266.012 416.009H268.012C268.012 413.382 267.664 411.108 266.932 409.219L265.067 409.942ZM266.012 416.009V417.784H268.012V416.009H266.012ZM267.012 416.784H245.989V418.784H267.012V416.784ZM246.989 417.784V414.162H244.989V417.784H246.989ZM245.989 415.162H262.75V413.162H245.989V415.162ZM263.75 414.162C263.75 412.487 263.414 410.954 262.718 409.588L260.936 410.497C261.471 411.546 261.75 412.759 261.75 414.162H263.75ZM262.721 409.595C262.037 408.226 261.047 407.132 259.762 406.334L258.707 408.033C259.671 408.632 260.41 409.444 260.933 410.49L262.721 409.595ZM259.766 406.337C258.471 405.524 256.967 405.136 255.293 405.136V407.136C256.649 407.136 257.773 407.447 258.703 408.031L259.766 406.337ZM255.293 405.136C253.451 405.136 251.805 405.596 250.398 406.552L251.523 408.206C252.555 407.505 253.797 407.136 255.293 407.136V405.136ZM250.4 406.551C249.049 407.465 248.004 408.663 247.277 410.131L249.069 411.019C249.644 409.859 250.458 408.927 251.521 408.208L250.4 406.551ZM247.277 410.131C246.556 411.587 246.196 413.148 246.196 414.801H248.196C248.196 413.448 248.488 412.192 249.069 411.019L247.277 410.131ZM246.196 414.801V417.216H248.196V414.801H246.196ZM246.196 417.216C246.196 419.387 246.57 421.294 247.366 422.898L249.158 422.01C248.533 420.749 248.196 419.164 248.196 417.216H246.196ZM247.37 422.907C248.172 424.485 249.301 425.717 250.759 426.567L251.766 424.839C250.667 424.198 249.795 423.264 249.153 422.001L247.37 422.907ZM250.765 426.57C252.216 427.403 253.878 427.804 255.719 427.804V425.804C254.175 425.804 252.866 425.471 251.76 424.836L250.765 426.57ZM255.719 427.804C256.913 427.804 258.02 427.637 259.03 427.287L258.375 425.397C257.608 425.663 256.727 425.804 255.719 425.804V427.804ZM259.037 427.285C260.063 426.92 260.963 426.374 261.722 425.642L260.334 424.202C259.791 424.725 259.14 425.125 258.367 425.4L259.037 427.285ZM261.729 425.635C262.495 424.883 263.073 423.962 263.474 422.894L261.601 422.191C261.291 423.017 260.864 423.682 260.327 424.208L261.729 425.635ZM262.267 423.505L266.315 424.642L266.856 422.716L262.808 421.58L262.267 423.505ZM265.631 423.383C265.251 424.605 264.616 425.676 263.718 426.606L265.156 427.996C266.27 426.843 267.068 425.499 267.541 423.975L265.631 423.383ZM263.722 426.602C262.825 427.521 261.705 428.251 260.343 428.785L261.073 430.647C262.671 430.021 264.037 429.141 265.152 428L263.722 426.602ZM260.35 428.782C259.002 429.3 257.463 429.568 255.719 429.568V431.568C257.668 431.568 259.456 431.268 261.067 430.649L260.35 428.782ZM273.386 430H272.386V431H273.386V430ZM273.386 402.727V401.727H272.386V402.727H273.386ZM277.434 402.727H278.434V401.727H277.434V402.727ZM277.434 406.847H276.434V407.847H277.434V406.847ZM277.718 406.847V407.847H278.416L278.657 407.192L277.718 406.847ZM280.417 403.562L279.875 402.722L280.417 403.562ZM287.022 402.372H288.022V401.467L287.122 401.377L287.022 402.372ZM287.022 406.634L286.78 407.604L288.022 407.914V406.634H287.022ZM286.046 406.474L285.881 407.46L285.894 407.462L285.908 407.464L286.046 406.474ZM280.914 407.184L281.382 408.068L281.386 408.066L280.914 407.184ZM278.464 409.457L277.615 408.929L277.613 408.931L278.464 409.457ZM277.576 430V431H278.576V430H277.576ZM274.386 430V402.727H272.386V430H274.386ZM273.386 403.727H277.434V401.727H273.386V403.727ZM276.434 402.727V406.847H278.434V402.727H276.434ZM277.434 407.847H277.718V405.847H277.434V407.847ZM278.657 407.192C279.073 406.062 279.825 405.135 280.96 404.402L279.875 402.722C278.406 403.67 277.358 404.932 276.78 406.501L278.657 407.192ZM280.96 404.402C282.091 403.672 283.369 403.301 284.821 403.301V401.301C283.006 401.301 281.348 401.771 279.875 402.722L280.96 404.402ZM284.821 403.301C285.117 403.301 285.492 403.307 285.949 403.319L286 401.319C285.534 401.307 285.14 401.301 284.821 401.301V403.301ZM285.949 403.319C286.404 403.33 286.724 403.347 286.923 403.367L287.122 401.377C286.847 401.35 286.468 401.331 286 401.319L285.949 403.319ZM286.022 402.372V406.634H288.022V402.372H286.022ZM287.265 405.663C287.061 405.612 286.678 405.552 286.184 405.483L285.908 407.464C286.432 407.537 286.7 407.584 286.78 407.604L287.265 405.663ZM286.21 405.487C285.653 405.395 285.071 405.349 284.466 405.349V407.349C284.972 407.349 285.444 407.387 285.881 407.46L286.21 405.487ZM284.466 405.349C282.996 405.349 281.647 405.659 280.443 406.302L281.386 408.066C282.265 407.596 283.284 407.349 284.466 407.349V405.349ZM280.447 406.3C279.264 406.926 278.314 407.805 277.615 408.929L279.313 409.985C279.822 409.167 280.505 408.531 281.382 408.068L280.447 406.3ZM277.613 408.931C276.915 410.063 276.576 411.343 276.576 412.741H278.576C278.576 411.678 278.83 410.768 279.315 409.982L277.613 408.931ZM276.576 412.741V430H278.576V412.741H276.576ZM277.576 429H273.386V431H277.576V429ZM295.31 429.663L294.884 430.567L294.89 430.57L295.31 429.663ZM291.954 426.804L291.12 427.355L291.122 427.359L291.954 426.804ZM291.634 418.459L292.479 418.994L292.482 418.99L291.634 418.459ZM297.512 414.908L297.726 415.885L297.732 415.883L297.512 414.908ZM301.294 414.233L301.166 413.241L301.164 413.241L301.294 414.233ZM305.324 413.754L305.427 414.748L305.437 414.747L305.324 413.754ZM307.597 413.168L307.107 412.295L307.098 412.301L307.597 413.168ZM306.887 407.521L306.171 408.22L306.175 408.224L306.887 407.521ZM297.867 407.379L298.477 408.171L297.867 407.379ZM295.47 410.185L295.133 411.126L295.992 411.433L296.377 410.606L295.47 410.185ZM291.492 408.764L290.573 408.37L290.154 409.348L291.156 409.706L291.492 408.764ZM294.333 404.893L294.948 405.682L294.949 405.681L294.333 404.893ZM298.24 402.94L298.492 403.908L298.497 403.907L298.24 402.94ZM305.448 402.692L305.264 403.675L305.276 403.677L305.448 402.692ZM308.769 403.952L308.254 404.81L308.258 404.812L308.769 403.952ZM311.45 406.847L310.574 407.329V407.329L311.45 406.847ZM312.515 430V431H313.515V430H312.515ZM308.325 430H307.325V431H308.325V430ZM308.325 426.307H309.325V425.307H308.325V426.307ZM308.112 426.307V425.307H307.482L307.21 425.874L308.112 426.307ZM306.691 428.207L307.405 428.907L306.691 428.207ZM304.046 429.929L303.651 429.01L304.046 429.929ZM304.845 425.898L304.351 425.029L304.348 425.031L304.845 425.898ZM307.437 423.377L306.57 422.879L306.566 422.886L307.437 423.377ZM308.325 416.293H309.325V413.531L307.557 415.652L308.325 416.293ZM307.153 416.879L307.423 417.842L307.435 417.838L307.153 416.879ZM305.093 417.322L305.245 418.311L305.258 418.309L305.093 417.322ZM302.838 417.642L302.952 418.636L302.966 418.634L302.838 417.642ZM301.08 417.855L301.21 418.847L301.211 418.847L301.08 417.855ZM298.026 418.548L298.339 419.497L298.346 419.495L298.026 418.548ZM295.754 419.95L295.019 419.271L295.019 419.272L295.754 419.95ZM296.517 425.774L295.948 426.596L295.958 426.603L296.517 425.774ZM300.015 429.639C298.415 429.639 296.992 429.339 295.729 428.755L294.89 430.57C296.445 431.289 298.159 431.639 300.015 431.639V429.639ZM295.736 428.758C294.485 428.169 293.509 427.334 292.786 426.249L291.122 427.359C292.056 428.76 293.318 429.83 294.884 430.567L295.736 428.758ZM292.788 426.253C292.086 425.189 291.711 423.874 291.711 422.259H289.711C289.711 424.194 290.165 425.909 291.12 427.355L292.788 426.253ZM291.711 422.259C291.711 420.82 291.995 419.757 292.479 418.994L290.79 417.923C290.042 419.102 289.711 420.572 289.711 422.259H291.711ZM292.482 418.99C293.005 418.155 293.699 417.505 294.578 417.03L293.627 415.271C292.447 415.908 291.495 416.797 290.787 417.928L292.482 418.99ZM294.578 417.03C295.519 416.522 296.566 416.139 297.726 415.885L297.298 413.931C295.971 414.221 294.746 414.666 293.627 415.271L294.578 417.03ZM297.732 415.883C298.957 415.606 300.187 415.386 301.423 415.225L301.164 413.241C299.866 413.411 298.575 413.642 297.291 413.932L297.732 415.883ZM301.421 415.225C303.074 415.012 304.409 414.854 305.427 414.748L305.221 412.759C304.18 412.867 302.827 413.028 301.166 413.241L301.421 415.225ZM305.437 414.747C306.512 414.625 307.438 414.412 308.095 414.035L307.098 412.301C306.808 412.468 306.219 412.645 305.211 412.76L305.437 414.747ZM308.086 414.04C308.959 413.55 309.325 412.693 309.325 411.747H307.325C307.325 412.151 307.205 412.241 307.108 412.295L308.086 414.04ZM309.325 411.747V411.605H307.325V411.747H309.325ZM309.325 411.605C309.325 409.668 308.79 408.025 307.598 406.819L306.175 408.224C306.901 408.958 307.325 410.038 307.325 411.605H309.325ZM307.602 406.823C306.399 405.59 304.655 405.065 302.572 405.065V407.065C304.347 407.065 305.48 407.511 306.171 408.22L307.602 406.823ZM302.572 405.065C300.436 405.065 298.625 405.532 297.256 406.587L298.477 408.171C299.381 407.474 300.707 407.065 302.572 407.065V405.065ZM297.256 406.587C296.031 407.532 295.11 408.586 294.563 409.764L296.377 410.606C296.753 409.795 297.43 408.978 298.477 408.171L297.256 406.587ZM295.806 409.243L291.829 407.822L291.156 409.706L295.133 411.126L295.806 409.243ZM292.412 409.158C293.069 407.625 293.922 406.483 294.948 405.682L293.718 404.105C292.377 405.151 291.337 406.589 290.573 408.37L292.412 409.158ZM294.949 405.681C296.042 404.827 297.221 404.239 298.492 403.908L297.987 401.973C296.441 402.376 295.016 403.09 293.717 404.106L294.949 405.681ZM298.497 403.907C299.839 403.549 301.15 403.372 302.43 403.372V401.372C300.964 401.372 299.48 401.574 297.982 401.974L298.497 403.907ZM302.43 403.372C303.228 403.372 304.17 403.47 305.264 403.675L305.633 401.709C304.454 401.488 303.384 401.372 302.43 401.372V403.372ZM305.276 403.677C306.295 403.855 307.287 404.23 308.254 404.81L309.283 403.095C308.12 402.397 306.898 401.931 305.621 401.707L305.276 403.677ZM308.258 404.812C309.157 405.346 309.934 406.167 310.574 407.329L312.326 406.364C311.545 404.946 310.535 403.838 309.279 403.092L308.258 404.812ZM310.574 407.329C311.173 408.418 311.515 409.96 311.515 412.031H313.515C313.515 409.77 313.147 407.856 312.326 406.364L310.574 407.329ZM311.515 412.031V430H313.515V412.031H311.515ZM312.515 429H308.325V431H312.515V429ZM309.325 430V426.307H307.325V430H309.325ZM308.325 425.307H308.112V427.307H308.325V425.307ZM307.21 425.874C306.99 426.334 306.595 426.878 305.978 427.506L307.405 428.907C308.114 428.186 308.666 427.464 309.013 426.74L307.21 425.874ZM305.978 427.506C305.427 428.067 304.663 428.575 303.651 429.01L304.441 430.848C305.63 430.336 306.63 429.696 307.405 428.907L305.978 427.506ZM303.651 429.01C302.708 429.416 301.507 429.639 300.015 429.639V431.639C301.695 431.639 303.182 431.389 304.441 430.848L303.651 429.01ZM300.654 427.875C302.44 427.875 304.019 427.524 305.342 426.766L304.348 425.031C303.398 425.575 302.183 425.875 300.654 425.875V427.875ZM305.338 426.768C306.625 426.038 307.629 425.074 308.308 423.868L306.566 422.886C306.085 423.74 305.36 424.456 304.351 425.029L305.338 426.768ZM308.304 423.875C308.979 422.701 309.325 421.447 309.325 420.128H307.325C307.325 421.081 307.079 421.993 306.57 422.879L308.304 423.875ZM309.325 420.128V416.293H307.325V420.128H309.325ZM307.557 415.652C307.592 415.61 307.586 415.637 307.451 415.704C307.327 415.767 307.138 415.84 306.871 415.919L307.435 417.838C307.771 417.739 308.08 417.626 308.346 417.493C308.601 417.366 308.88 417.189 309.093 416.933L307.557 415.652ZM306.883 415.916C306.334 416.069 305.684 416.21 304.929 416.336L305.258 418.309C306.065 418.174 306.788 418.019 307.423 417.842L306.883 415.916ZM304.941 416.334C304.179 416.451 303.436 416.557 302.71 416.65L302.966 418.634C303.709 418.538 304.468 418.43 305.245 418.311L304.941 416.334ZM302.724 416.649C302 416.732 301.408 416.803 300.95 416.864L301.211 418.847C301.653 418.788 302.233 418.718 302.952 418.636L302.724 416.649ZM300.951 416.864C299.804 417.013 298.721 417.258 297.707 417.6L298.346 419.495C299.226 419.198 300.179 418.981 301.21 418.847L300.951 416.864ZM297.714 417.598C296.642 417.95 295.731 418.502 295.019 419.271L296.488 420.629C296.936 420.144 297.54 419.76 298.339 419.497L297.714 417.598ZM295.019 419.272C294.238 420.118 293.901 421.226 293.901 422.472H295.901C295.901 421.587 296.134 421.013 296.489 420.629L295.019 419.272ZM293.901 422.472C293.901 424.213 294.568 425.641 295.948 426.596L297.086 424.952C296.312 424.416 295.901 423.642 295.901 422.472H293.901ZM295.958 426.603C297.252 427.475 298.84 427.875 300.654 427.875V425.875C299.131 425.875 297.96 425.541 297.076 424.945L295.958 426.603ZM320.163 430H319.163V431H320.163V430ZM320.163 402.727V401.727H319.163V402.727H320.163ZM324.212 402.727H325.212V401.727H324.212V402.727ZM324.212 406.847H323.212V407.847H324.212V406.847ZM324.496 406.847V407.847H325.193L325.434 407.192L324.496 406.847ZM327.195 403.562L326.652 402.722L327.195 403.562ZM333.8 402.372H334.8V401.467L333.899 401.377L333.8 402.372ZM333.8 406.634L333.557 407.604L334.8 407.914V406.634H333.8ZM332.823 406.474L332.659 407.46L332.672 407.462L332.685 407.464L332.823 406.474ZM327.692 407.184L328.159 408.068L328.163 408.066L327.692 407.184ZM325.241 409.457L324.392 408.929L324.391 408.931L325.241 409.457ZM324.354 430V431H325.354V430H324.354ZM321.163 430V402.727H319.163V430H321.163ZM320.163 403.727H324.212V401.727H320.163V403.727ZM323.212 402.727V406.847H325.212V402.727H323.212ZM324.212 407.847H324.496V405.847H324.212V407.847ZM325.434 407.192C325.85 406.062 326.602 405.135 327.737 404.402L326.652 402.722C325.183 403.67 324.135 404.932 323.557 406.501L325.434 407.192ZM327.737 404.402C328.868 403.672 330.146 403.301 331.598 403.301V401.301C329.783 401.301 328.125 401.771 326.652 402.722L327.737 404.402ZM331.598 403.301C331.894 403.301 332.27 403.307 332.727 403.319L332.778 401.319C332.311 401.307 331.917 401.301 331.598 401.301V403.301ZM332.727 403.319C333.182 403.33 333.501 403.347 333.7 403.367L333.899 401.377C333.625 401.35 333.246 401.331 332.778 401.319L332.727 403.319ZM332.8 402.372V406.634H334.8V402.372H332.8ZM334.042 405.663C333.838 405.612 333.455 405.552 332.961 405.483L332.685 407.464C333.209 407.537 333.477 407.584 333.557 407.604L334.042 405.663ZM332.988 405.487C332.431 405.395 331.849 405.349 331.243 405.349V407.349C331.75 407.349 332.221 407.387 332.659 407.46L332.988 405.487ZM331.243 405.349C329.773 405.349 328.424 405.659 327.221 406.302L328.163 408.066C329.043 407.596 330.061 407.349 331.243 407.349V405.349ZM327.224 406.3C326.041 406.926 325.091 407.805 324.392 408.929L326.091 409.985C326.599 409.167 327.283 408.531 328.159 408.068L327.224 406.3ZM324.391 408.931C323.692 410.063 323.354 411.343 323.354 412.741H325.354C325.354 411.678 325.607 410.768 326.092 409.982L324.391 408.931ZM323.354 412.741V430H325.354V412.741H323.354ZM324.354 429H320.163V431H324.354V429ZM342.411 428.757L341.864 429.594L342.411 428.757ZM338.185 409.173L337.285 408.737L337.284 408.74L338.185 409.173ZM342.482 404.183L343.028 405.021L343.029 405.02L342.482 404.183ZM357.912 406.42L358.705 405.811V405.811L357.912 406.42ZM359.741 410.895V411.895H360.889L360.731 410.757L359.741 410.895ZM355.55 410.895L354.582 411.144L354.775 411.895H355.55V410.895ZM353.42 407.592L352.754 408.339L352.763 408.346L353.42 407.592ZM344.719 407.415L345.287 408.238L345.289 408.237L344.719 407.415ZM341.861 410.984L340.948 410.576L340.946 410.58L341.861 410.984ZM341.843 421.868L340.922 422.258L340.925 422.264L341.843 421.868ZM344.684 425.508L344.106 426.324L344.109 426.326L344.684 425.508ZM351.982 426.236L351.589 425.316L351.982 426.236ZM354.237 424.602L354.992 425.257L354.237 424.602ZM355.55 422.045V421.045H354.779L354.583 421.792L355.55 422.045ZM359.741 422.045L360.73 422.191L360.899 421.045H359.741V422.045ZM357.983 426.396L357.173 425.809L357.172 425.81L357.983 426.396ZM354.308 429.45L354.749 430.347L354.752 430.345L354.308 429.45ZM349.016 429.568C346.622 429.568 344.618 429.005 342.958 427.92L341.864 429.594C343.898 430.924 346.297 431.568 349.016 431.568V429.568ZM342.958 427.92C341.277 426.821 339.976 425.305 339.055 423.343L337.245 424.193C338.313 426.469 339.853 428.279 341.864 429.594L342.958 427.92ZM339.055 423.343C338.133 421.377 337.658 419.105 337.658 416.506H335.658C335.658 419.351 336.178 421.921 337.245 424.193L339.055 423.343ZM337.658 416.506C337.658 413.859 338.144 411.567 339.087 409.606L337.284 408.74C336.191 411.016 335.658 413.612 335.658 416.506H337.658ZM339.086 409.608C340.043 407.627 341.358 406.109 343.028 405.021L341.936 403.345C339.937 404.648 338.387 406.456 337.285 408.737L339.086 409.608ZM343.029 405.02C344.695 403.931 346.654 403.372 348.945 403.372V401.372C346.312 401.372 343.963 402.02 341.935 403.346L343.029 405.02ZM348.945 403.372C350.737 403.372 352.32 403.703 353.711 404.345L354.549 402.53C352.863 401.751 350.989 401.372 348.945 401.372V403.372ZM353.711 404.345C355.111 404.991 356.24 405.886 357.119 407.03L358.705 405.811C357.619 404.398 356.227 403.304 354.549 402.53L353.711 404.345ZM357.119 407.03C357.989 408.161 358.536 409.488 358.75 411.032L360.731 410.757C360.472 408.893 359.8 407.236 358.705 405.811L357.119 407.03ZM359.741 409.895H355.55V411.895H359.741V409.895ZM356.519 410.646C356.142 409.181 355.308 407.911 354.077 406.838L352.763 408.346C353.733 409.191 354.319 410.123 354.582 411.144L356.519 410.646ZM354.085 406.846C352.768 405.672 351.041 405.136 349.016 405.136V407.136C350.685 407.136 351.893 407.571 352.754 408.339L354.085 406.846ZM349.016 405.136C347.199 405.136 345.564 405.614 344.15 406.593L345.289 408.237C346.337 407.511 347.567 407.136 349.016 407.136V405.136ZM344.152 406.591C342.761 407.55 341.698 408.893 340.948 410.576L342.774 411.391C343.396 409.996 344.239 408.961 345.287 408.238L344.152 406.591ZM340.946 410.58C340.204 412.26 339.849 414.196 339.849 416.364H341.849C341.849 414.411 342.169 412.761 342.775 411.388L340.946 410.58ZM339.849 416.364C339.849 418.573 340.196 420.546 340.922 422.258L342.764 421.477C342.164 420.064 341.849 418.368 341.849 416.364H339.849ZM340.925 422.264C341.662 423.971 342.717 425.339 344.106 426.324L345.262 424.692C344.212 423.948 343.373 422.89 342.761 421.471L340.925 422.264ZM344.109 426.326C345.526 427.321 347.175 427.804 349.016 427.804V425.804C347.543 425.804 346.304 425.423 345.258 424.689L344.109 426.326ZM349.016 427.804C350.223 427.804 351.347 427.594 352.374 427.156L351.589 425.316C350.84 425.635 349.988 425.804 349.016 425.804V427.804ZM352.374 427.156C353.397 426.719 354.275 426.085 354.992 425.257L353.481 423.947C352.967 424.54 352.341 424.995 351.589 425.316L352.374 427.156ZM354.992 425.257C355.717 424.421 356.222 423.427 356.518 422.299L354.583 421.792C354.358 422.652 353.987 423.364 353.481 423.947L354.992 425.257ZM355.55 423.045H359.741V421.045H355.55V423.045ZM358.751 421.9C358.538 423.354 358.012 424.652 357.173 425.809L358.793 426.982C359.824 425.559 360.47 423.957 360.73 422.191L358.751 421.9ZM357.172 425.81C356.352 426.946 355.257 427.862 353.863 428.554L354.752 430.345C356.412 429.522 357.768 428.402 358.794 426.981L357.172 425.81ZM353.866 428.552C352.512 429.219 350.905 429.568 349.016 429.568V431.568C351.153 431.568 353.073 431.172 354.749 430.347L353.866 428.552ZM370.057 430V431H371.057V430H370.057ZM365.866 430H364.866V431H365.866V430ZM365.866 393.636V392.636H364.866V393.636H365.866ZM370.057 393.636H371.057V392.636H370.057V393.636ZM370.057 406.989H369.057V407.989H370.057V406.989ZM370.412 406.989V407.989H371.056L371.323 407.402L370.412 406.989ZM373.288 403.633L373.832 404.472L373.834 404.471L373.288 403.633ZM383.32 403.491L382.849 404.373L382.855 404.376L383.32 403.491ZM386.57 406.882L385.677 407.332L385.681 407.34L386.57 406.882ZM387.741 430V431H388.741V430H387.741ZM383.551 430H382.551V431H383.551V430ZM381.864 407.93L381.132 408.611L381.139 408.618L381.864 407.93ZM373.537 407.006L373.067 406.124L373.063 406.126L373.537 407.006ZM370.98 409.545L370.109 409.054L370.105 409.061L370.98 409.545ZM369.057 413.594V430H371.057V413.594H369.057ZM370.057 429H365.866V431H370.057V429ZM366.866 430V393.636H364.866V430H366.866ZM365.866 394.636H370.057V392.636H365.866V394.636ZM369.057 393.636V406.989H371.057V393.636H369.057ZM370.057 407.989H370.412V405.989H370.057V407.989ZM371.323 407.402C371.884 406.165 372.717 405.195 373.832 404.472L372.744 402.794C371.303 403.728 370.218 404.996 369.501 406.575L371.323 407.402ZM373.834 404.471C374.91 403.77 376.416 403.372 378.438 403.372V401.372C376.174 401.372 374.247 401.815 372.743 402.795L373.834 404.471ZM378.438 403.372C380.16 403.372 381.621 403.717 382.849 404.373L383.791 402.609C382.226 401.773 380.432 401.372 378.438 401.372V403.372ZM382.855 404.376C384.052 405.005 384.993 405.975 385.677 407.332L387.463 406.432C386.608 404.735 385.382 403.445 383.785 402.606L382.855 404.376ZM385.681 407.34C386.367 408.671 386.741 410.429 386.741 412.67H388.741C388.741 410.224 388.335 408.124 387.458 406.424L385.681 407.34ZM386.741 412.67V430H388.741V412.67H386.741ZM387.741 429H383.551V431H387.741V429ZM384.551 430V412.955H382.551V430H384.551ZM384.551 412.955C384.551 410.618 383.942 408.665 382.589 407.241L381.139 408.618C382.036 409.562 382.551 410.959 382.551 412.955H384.551ZM382.596 407.248C381.255 405.808 379.422 405.136 377.23 405.136V407.136C378.992 407.136 380.248 407.661 381.132 408.611L382.596 407.248ZM377.23 405.136C375.712 405.136 374.316 405.458 373.067 406.124L374.007 407.889C374.936 407.394 376.002 407.136 377.23 407.136V405.136ZM373.063 406.126C371.812 406.8 370.825 407.785 370.109 409.054L371.851 410.037C372.39 409.081 373.108 408.373 374.011 407.887L373.063 406.126ZM370.105 409.061C369.39 410.355 369.057 411.88 369.057 413.594H371.057C371.057 412.136 371.339 410.962 371.855 410.03L370.105 409.061ZM395.23 440.05L395.438 439.072L395.428 439.069L395.418 439.068L395.23 440.05ZM394.076 439.73L393.115 439.453L392.884 440.252L393.629 440.625L394.076 439.73ZM395.141 436.037L395.389 435.068L394.449 434.828L394.18 435.76L395.141 436.037ZM397.84 436.321L397.749 435.325L397.84 436.321ZM399.917 435.273L399.21 434.566L399.204 434.573L399.197 434.58L399.917 435.273ZM401.604 432.273L402.543 432.618L402.543 432.617L401.604 432.273ZM402.385 430.142L403.324 430.486L403.451 430.141L403.324 429.797L402.385 430.142ZM392.3 402.727V401.727H390.867L391.362 403.073L392.3 402.727ZM396.846 402.727L397.791 402.4L397.558 401.727H396.846V402.727ZM404.374 424.46L403.429 424.788L403.662 425.46H404.374V424.46ZM404.658 424.46V425.46H405.37L405.603 424.788L404.658 424.46ZM412.187 402.727V401.727H411.475L411.242 402.4L412.187 402.727ZM416.732 402.727L417.67 403.075L418.169 401.727H416.732V402.727ZM405.155 433.977L404.218 433.63L404.217 433.63L405.155 433.977ZM403.22 437.475L402.452 436.835L402.448 436.84L403.22 437.475ZM400.539 439.553L400.135 438.638L400.131 438.64L400.539 439.553ZM397.13 439.227C396.473 439.227 395.912 439.172 395.438 439.072L395.022 441.028C395.661 441.164 396.366 441.227 397.13 441.227V439.227ZM395.418 439.068C394.862 438.961 394.6 438.874 394.523 438.836L393.629 440.625C393.978 440.799 394.485 440.925 395.042 441.032L395.418 439.068ZM395.037 440.007L396.102 436.314L394.18 435.76L393.115 439.453L395.037 440.007ZM394.893 437.006C395.987 437.285 397.005 437.401 397.931 437.317L397.749 435.325C397.113 435.383 396.332 435.309 395.389 435.068L394.893 437.006ZM397.931 437.317C398.978 437.222 399.887 436.747 400.638 435.967L399.197 434.58C398.74 435.055 398.264 435.278 397.749 435.325L397.931 437.317ZM400.625 435.981C401.39 435.215 402.014 434.057 402.543 432.618L400.666 431.928C400.176 433.259 399.676 434.101 399.21 434.566L400.625 435.981ZM402.543 432.617L403.324 430.486L401.447 429.798L400.665 431.928L402.543 432.617ZM403.324 429.797L393.239 402.382L391.362 403.073L401.447 430.487L403.324 429.797ZM392.3 403.727H396.846V401.727H392.3V403.727ZM395.901 403.055L403.429 424.788L405.319 424.133L397.791 402.4L395.901 403.055ZM404.374 425.46H404.658V423.46H404.374V425.46ZM405.603 424.788L413.132 403.055L411.242 402.4L403.713 424.133L405.603 424.788ZM412.187 403.727H416.732V401.727H412.187V403.727ZM415.794 402.38L404.218 433.63L406.093 434.325L417.67 403.075L415.794 402.38ZM404.217 433.63C403.727 434.958 403.133 436.018 402.452 436.835L403.988 438.115C404.846 437.086 405.542 435.814 406.093 434.324L404.217 433.63ZM402.448 436.84C401.769 437.665 400.998 438.257 400.135 438.638L400.943 440.467C402.116 439.949 403.133 439.155 403.992 438.111L402.448 436.84ZM400.131 438.64C399.271 439.024 398.277 439.227 397.13 439.227V441.227C398.516 441.227 399.795 440.981 400.947 440.465L400.131 438.64Z" fill="black" mask="url(#path-6-outside-2_38_2)"/>
</g>
<defs>
<filter id="filter0_d_38_2" x="0" y="0" width="611" height="611" filterUnits="userSpaceOnUse" color-interpolation-filters="sRGB">
<feFlood flood-opacity="0" result="BackgroundImageFix"/>
<feColorMatrix in="SourceAlpha" type="matrix" values="0 0 0 0 0 0 0 0 0 0 0 0 0 0 0 0 0 0 127 0" result="hardAlpha"/>
<feOffset dy="4"/>
<feGaussianBlur stdDeviation="10"/>
<feComposite in2="hardAlpha" operator="out"/>
<feColorMatrix type="matrix" values="0 0 0 0 0 0 0 0 0 0 0 0 0 0 0 0 0 0 0.25 0"/>
<feBlend mode="normal" in2="BackgroundImageFix" result="effect1_dropShadow_38_2"/>
<feBlend mode="normal" in="SourceGraphic" in2="effect1_dropShadow_38_2" result="shape"/>
</filter>
<filter id="filter1_d_38_2" x="16" y="16" width="579" height="293.5" filterUnits="userSpaceOnUse" color-interpolation-filters="sRGB">
<feFlood flood-opacity="0" result="BackgroundImageFix"/>
<feColorMatrix in="SourceAlpha" type="matrix" values="0 0 0 0 0 0 0 0 0 0 0 0 0 0 0 0 0 0 127 0" result="hardAlpha"/>
<feOffset dy="4"/>
<feGaussianBlur stdDeviation="2"/>
<feComposite in2="hardAlpha" operator="out"/>
<feColorMatrix type="matrix" values="0 0 0 0 0 0 0 0 0 0 0 0 0 0 0 0 0 0 0.25 0"/>
<feBlend mode="normal" in2="BackgroundImageFix" result="effect1_dropShadow_38_2"/>
<feBlend mode="normal" in="SourceGraphic" in2="effect1_dropShadow_38_2" result="shape"/>
</filter>
<filter id="filter2_d_38_2" x="201.741" y="173.636" width="208.448" height="45.0028" filterUnits="userSpaceOnUse" color-interpolation-filters="sRGB">
<feFlood flood-opacity="0" result="BackgroundImageFix"/>
<feColorMatrix in="SourceAlpha" type="matrix" values="0 0 0 0 0 0 0 0 0 0 0 0 0 0 0 0 0 0 127 0" result="hardAlpha"/>
<feOffset dy="4"/>
<feGaussianBlur stdDeviation="2"/>
<feComposite in2="hardAlpha" operator="out"/>
<feColorMatrix type="matrix" values="0 0 0 0 0 0 0 0 0 0 0 0 0 0 0 0 0 0 0.25 0"/>
<feBlend mode="normal" in2="BackgroundImageFix" result="effect1_dropShadow_38_2"/>
<feBlend mode="normal" in="SourceGraphic" in2="effect1_dropShadow_38_2" result="shape"/>
</filter>
<filter id="filter3_d_38_2" x="175.976" y="376.5" width="260.756" height="87.7273" filterUnits="userSpaceOnUse" color-interpolation-filters="sRGB">
<feFlood flood-opacity="0" result="BackgroundImageFix"/>
<feColorMatrix in="SourceAlpha" type="matrix" values="0 0 0 0 0 0 0 0 0 0 0 0 0 0 0 0 0 0 127 0" result="hardAlpha"/>
<feOffset dy="4"/>
<feGaussianBlur stdDeviation="10"/>
<feComposite in2="hardAlpha" operator="out"/>
<feColorMatrix type="matrix" values="0 0 0 0 0 0 0 0 0 0 0 0 0 0 0 0 0 0 0.25 0"/>
<feBlend mode="normal" in2="BackgroundImageFix" result="effect1_dropShadow_38_2"/>
<feBlend mode="normal" in="SourceGraphic" in2="effect1_dropShadow_38_2" result="shape"/>
</filter>
<linearGradient id="paint0_linear_38_2" x1="359.5" y1="578" x2="344" y2="254" gradientUnits="userSpaceOnUse">
<stop stop-color="#191616"/>
<stop offset="1" stop-color="#753472"/>
</linearGradient>
<linearGradient id="paint1_linear_38_2" x1="258.5" y1="33.5" x2="306" y2="338" gradientUnits="userSpaceOnUse">
<stop stop-color="#FD3FA6" stop-opacity="0.83"/>
<stop offset="1" stop-color="#78304A"/>
</linearGradient>
</defs>
</svg>
