<svg width="708" height="708" viewBox="0 0 708 708" fill="none" xmlns="http://www.w3.org/2000/svg">
<g filter="url(#filter0_d_43_19)">
<path d="M640.901 352.401C640.901 510.078 513.078 637.901 355.401 637.901C197.723 637.901 69.9006 510.078 69.9006 352.401C69.9006 194.723 197.723 66.9006 355.401 66.9006C513.078 66.9006 640.901 194.723 640.901 352.401Z" fill="url(#paint0_linear_43_19)" shape-rendering="crispEdges"/>
</g>
<path d="M271.906 81.9946L630.375 418.844L159.42 560.863L271.906 81.9946Z" fill="#F6F2F2"/>
<path d="M422.349 145.906L414.192 138.2L439.164 111.767L447.683 119.815C450.247 122.237 451.941 124.839 452.765 127.621C453.598 130.394 453.569 133.225 452.68 136.114C451.799 138.994 450.066 141.803 447.481 144.539C444.879 147.292 442.149 149.2 439.291 150.26C436.44 151.313 433.573 151.486 430.689 150.781C427.813 150.067 425.033 148.442 422.349 145.906ZM420.075 138.384L424.825 142.871C427.01 144.936 429.22 146.226 431.454 146.74C433.687 147.254 435.892 147.066 438.069 146.175C440.246 145.285 442.351 143.764 444.383 141.613C446.399 139.479 447.786 137.312 448.544 135.114C449.311 132.906 449.391 130.735 448.786 128.601C448.19 126.457 446.859 124.41 444.794 122.459L439.683 117.63L420.075 138.384ZM440.315 162.879L465.287 136.447L474.528 145.177C476.37 146.917 477.588 148.67 478.182 150.437C478.785 152.195 478.875 153.884 478.452 155.503C478.037 157.115 477.22 158.565 476 159.856C474.927 160.992 473.839 161.739 472.736 162.097C471.641 162.463 470.563 162.552 469.503 162.364C468.451 162.185 467.449 161.841 466.497 161.332L466.253 161.59C467.013 162.406 467.558 163.458 467.887 164.746C468.217 166.035 468.202 167.421 467.842 168.905C467.482 170.389 466.644 171.828 465.327 173.222C464.075 174.547 462.648 175.454 461.046 175.944C459.444 176.433 457.701 176.374 455.816 175.766C453.931 175.158 451.948 173.87 449.866 171.903L440.315 162.879ZM446.198 163.064L452.548 169.063C454.639 171.039 456.506 172.037 458.147 172.057C459.806 172.077 461.184 171.506 462.281 170.344C463.127 169.449 463.679 168.408 463.938 167.22C464.206 166.023 464.133 164.799 463.721 163.546C463.317 162.285 462.538 161.109 461.385 160.02L454.88 153.875L446.198 163.064ZM457.514 151.087L463.451 156.696C464.415 157.606 465.463 158.238 466.595 158.591C467.735 158.952 468.859 159.004 469.965 158.746C471.08 158.497 472.077 157.908 472.955 156.978C474.052 155.817 474.578 154.45 474.534 152.877C474.497 151.295 473.601 149.675 471.846 148.017L465.806 142.31L457.514 151.087ZM497.138 179.044C498.219 177.59 498.55 175.981 498.131 174.218C497.713 172.455 496.703 170.817 495.103 169.305C493.933 168.2 492.73 167.422 491.495 166.971C490.268 166.528 489.096 166.407 487.98 166.606C486.872 166.813 485.92 167.339 485.123 168.182C484.457 168.887 484.051 169.653 483.907 170.477C483.78 171.301 483.825 172.133 484.041 172.973C484.266 173.804 484.569 174.603 484.951 175.371C485.341 176.131 485.72 176.806 486.089 177.399L488.09 180.658C488.608 181.489 489.138 182.462 489.68 183.577C490.231 184.7 490.634 185.903 490.888 187.185C491.159 188.467 491.146 189.773 490.849 191.105C490.552 192.436 489.818 193.722 488.647 194.961C487.298 196.389 485.704 197.326 483.866 197.772C482.037 198.226 480.087 198.118 478.017 197.448C475.955 196.787 473.908 195.497 471.878 193.578C469.985 191.79 468.634 189.936 467.826 188.016C467.027 186.104 466.747 184.228 466.988 182.388C467.237 180.555 467.993 178.867 469.256 177.324L472.56 180.446C471.703 181.525 471.258 182.668 471.225 183.875C471.209 185.081 471.503 186.27 472.105 187.442C472.725 188.614 473.559 189.695 474.609 190.687C475.831 191.841 477.115 192.68 478.461 193.203C479.816 193.717 481.114 193.885 482.357 193.707C483.607 193.521 484.688 192.946 485.599 191.983C486.428 191.105 486.857 190.159 486.887 189.145C486.917 188.131 486.694 187.074 486.219 185.974C485.744 184.874 485.164 183.755 484.478 182.619L482.104 178.617C480.6 176.073 479.766 173.681 479.602 171.441C479.437 169.202 480.197 167.191 481.879 165.41C483.278 163.93 484.897 163.018 486.738 162.672C488.595 162.326 490.492 162.49 492.429 163.164C494.382 163.837 496.202 164.97 497.889 166.563C499.592 168.173 500.818 169.909 501.566 171.772C502.322 173.626 502.592 175.444 502.374 177.225C502.165 179.015 501.453 180.596 500.236 181.971L497.138 179.044ZM525.569 209.031L522.368 206.007C523.049 204.908 523.482 203.786 523.667 202.642C523.861 201.506 523.845 200.384 523.621 199.277C523.414 198.169 523.02 197.113 522.439 196.108C521.857 195.103 521.128 194.186 520.25 193.356C518.65 191.844 516.818 190.879 514.755 190.46C512.7 190.05 510.546 190.27 508.292 191.121C506.048 191.98 503.844 193.554 501.682 195.843C499.519 198.132 498.073 200.421 497.343 202.711C496.621 205.009 496.523 207.173 497.05 209.201C497.585 211.237 498.652 213.011 500.253 214.523C501.131 215.352 502.088 216.029 503.124 216.552C504.16 217.075 505.233 217.413 506.343 217.566C507.469 217.718 508.594 217.665 509.717 217.407C510.857 217.149 511.953 216.653 513.004 215.919L516.204 218.943C514.687 220.067 513.106 220.861 511.461 221.326C509.817 221.792 508.168 221.952 506.514 221.806C504.868 221.652 503.273 221.212 501.729 220.485C500.193 219.767 498.758 218.778 497.424 217.518C495.17 215.388 493.685 212.943 492.97 210.183C492.256 207.424 492.354 204.553 493.266 201.571C494.177 198.589 495.95 195.705 498.584 192.917C501.218 190.129 503.997 188.195 506.923 187.116C509.848 186.036 512.708 185.775 515.504 186.332C518.3 186.889 520.825 188.232 523.079 190.362C524.413 191.622 525.482 192.998 526.286 194.491C527.099 195.992 527.626 197.564 527.865 199.207C528.112 200.841 528.05 202.492 527.679 204.161C527.316 205.821 526.613 207.444 525.569 209.031ZM514.657 233.115L511.301 229.944L545.979 212.681L549.284 215.803L534.017 251.405L530.661 248.235L543.784 218.521L543.578 218.326L514.657 233.115ZM525.651 223.96L539.177 236.739L536.494 239.578L522.968 226.799L525.651 223.96ZM584.067 248.664L559.094 275.097L555.997 272.171L561.2 237.809L560.942 237.565L541.335 258.319L538.134 255.295L563.107 228.862L566.204 231.788L561.004 266.251L561.262 266.494L580.918 245.689L584.067 248.664Z" fill="white"/>
<path d="M320.98 595.96L310.122 561.255L314.324 559.94L319.16 575.394L337.664 569.605L332.829 554.15L337.031 552.835L347.89 587.54L343.687 588.855L338.831 573.333L320.326 579.122L325.183 594.645L320.98 595.96ZM355.761 585.077L347.617 559.049L351.616 557.797L359.76 583.826L355.761 585.077ZM348.293 554.074C347.514 554.318 346.758 554.263 346.028 553.909C345.308 553.551 344.831 552.999 344.598 552.254C344.365 551.508 344.442 550.783 344.829 550.079C345.228 549.371 345.817 548.896 346.597 548.652C347.376 548.408 348.126 548.465 348.845 548.823C349.576 549.177 350.058 549.727 350.292 550.472C350.525 551.218 350.442 551.945 350.044 552.652C349.656 553.356 349.073 553.83 348.293 554.074ZM378.167 578.662C375.66 579.446 373.323 579.57 371.158 579.032C369 578.479 367.117 577.356 365.509 575.664C363.908 573.958 362.691 571.771 361.856 569.105C361.022 566.439 360.773 563.937 361.108 561.6C361.451 559.247 362.32 557.227 363.714 555.538C365.116 553.834 366.991 552.615 369.341 551.879C370.697 551.455 372.106 551.262 373.569 551.301C375.033 551.339 376.465 551.697 377.868 552.374C379.267 553.04 380.548 554.103 381.712 555.562C382.876 557.021 383.837 558.965 384.597 561.394L385.127 563.089L365.064 569.366L363.982 565.91L379.979 560.904C379.519 559.436 378.816 558.217 377.868 557.249C376.931 556.277 375.822 555.625 374.54 555.295C373.269 554.96 371.911 555.019 370.465 555.472C368.872 555.97 367.618 556.797 366.702 557.952C365.793 559.092 365.225 560.386 364.996 561.834C364.767 563.283 364.877 564.724 365.325 566.159L366.046 568.464C366.662 570.429 367.522 571.99 368.627 573.145C369.741 574.285 371.019 575.02 372.461 575.35C373.901 575.668 375.428 575.575 377.043 575.069C378.094 574.741 378.997 574.297 379.752 573.738C380.516 573.164 381.114 572.481 381.548 571.688C381.979 570.883 382.222 569.976 382.278 568.966L386.481 568.842C386.484 570.28 386.161 571.646 385.512 572.941C384.859 574.224 383.914 575.363 382.675 576.359C381.432 577.343 379.93 578.11 378.167 578.662ZM394.859 572.844L386.715 546.816L390.578 545.607L391.808 549.538L392.08 549.453C392.151 548.017 392.683 546.703 393.674 545.512C394.666 544.322 395.941 543.482 397.5 542.994C397.794 542.903 398.163 542.793 398.607 542.667C399.051 542.54 399.39 542.453 399.623 542.405L400.895 546.472C400.749 546.48 400.423 546.527 399.916 546.611C399.416 546.68 398.901 546.798 398.37 546.964C397.105 547.36 396.059 547.979 395.231 548.821C394.41 549.648 393.857 550.615 393.571 551.722C393.292 552.813 393.337 553.947 393.704 555.122L398.858 571.593L394.859 572.844ZM420.464 565.502C418.814 566.018 417.22 566.176 415.681 565.975C414.139 565.763 412.787 565.188 411.625 564.249C410.46 563.299 409.612 561.977 409.082 560.282C408.615 558.791 408.531 557.49 408.828 556.38C409.122 555.259 409.678 554.279 410.494 553.44C411.311 552.602 412.272 551.867 413.377 551.236C414.489 550.59 415.625 549.999 416.785 549.463C418.303 548.765 419.537 548.211 420.488 547.802C421.447 547.378 422.112 546.965 422.482 546.564C422.864 546.159 422.954 545.635 422.753 544.991L422.71 544.855C422.187 543.183 421.323 542.027 420.118 541.387C418.925 540.744 417.407 540.71 415.566 541.286C413.657 541.884 412.291 542.77 411.468 543.945C410.645 545.121 410.161 546.252 410.018 547.338L405.798 547.17C405.981 545.377 406.499 543.863 407.353 542.628C408.215 541.378 409.263 540.368 410.498 539.597C411.741 538.812 413.017 538.214 414.327 537.804C415.163 537.542 416.156 537.344 417.304 537.208C418.46 537.057 419.641 537.127 420.849 537.419C422.068 537.708 423.209 538.361 424.272 539.381C425.335 540.4 426.19 541.943 426.837 544.011L432.203 561.16L428.203 562.411L427.101 558.886L426.897 558.95C426.803 559.6 426.54 560.345 426.109 561.187C425.678 562.029 425.007 562.84 424.098 563.621C423.189 564.402 421.977 565.029 420.464 565.502ZM419.95 561.719C421.531 561.224 422.767 560.496 423.657 559.536C424.559 558.572 425.132 557.511 425.378 556.355C425.636 555.196 425.595 554.074 425.255 552.989L424.11 549.329C424.004 549.585 423.69 549.888 423.167 550.238C422.651 550.573 422.04 550.919 421.334 551.277C420.635 551.62 419.949 551.946 419.277 552.255C418.613 552.55 418.075 552.793 417.663 552.983C416.666 553.444 415.763 553.968 414.955 554.556C414.155 555.129 413.571 555.802 413.205 556.574C412.846 557.331 412.826 558.218 413.144 559.234C413.579 560.624 414.422 561.514 415.673 561.904C416.931 562.279 418.357 562.217 419.95 561.719ZM439.502 558.876L431.358 532.847L435.222 531.639L436.452 535.57L436.723 535.485C436.794 534.049 437.326 532.735 438.318 531.544C439.309 530.353 440.585 529.514 442.144 529.026C442.437 528.934 442.806 528.825 443.25 528.699C443.695 528.572 444.033 528.485 444.266 528.437L445.539 532.504C445.392 532.512 445.066 532.558 444.559 532.643C444.06 532.712 443.545 532.83 443.014 532.996C441.748 533.392 440.702 534.011 439.874 534.853C439.053 535.68 438.5 536.647 438.214 537.753C437.935 538.845 437.98 539.979 438.347 541.153L443.501 557.625L439.502 558.876ZM467.208 550.802C464.768 551.566 462.486 551.647 460.363 551.046C458.241 550.445 456.388 549.282 454.807 547.557C453.225 545.832 452.028 543.67 451.215 541.072C450.388 538.428 450.143 535.943 450.482 533.617C450.829 531.276 451.699 529.261 453.093 527.572C454.495 525.869 456.371 524.649 458.721 523.914C460.551 523.341 462.306 523.164 463.987 523.382C465.668 523.601 467.168 524.173 468.487 525.1C469.806 526.027 470.834 527.268 471.569 528.824L467.569 530.075C466.893 528.985 465.887 528.146 464.55 527.56C463.221 526.959 461.675 526.934 459.912 527.485C458.353 527.973 457.114 528.807 456.193 529.988C455.281 531.155 454.727 532.574 454.531 534.248C454.343 535.907 454.556 537.719 455.171 539.685C455.801 541.696 456.665 543.348 457.764 544.641C458.875 545.931 460.141 546.806 461.562 547.267C462.995 547.724 464.502 547.705 466.084 547.21C467.123 546.885 468.01 546.409 468.744 545.782C469.478 545.156 470.033 544.411 470.409 543.55C470.784 542.688 470.947 541.744 470.899 540.717L474.898 539.466C475.153 541.073 475.027 542.632 474.52 544.143C474.02 545.638 473.155 546.976 471.924 548.155C470.7 549.319 469.129 550.201 467.208 550.802ZM482.22 528.319L487.119 543.977L483.12 545.228L472.261 510.524L476.26 509.273L480.247 522.016L480.586 521.91C480.776 520.374 481.357 519.021 482.33 517.848C483.31 516.661 484.823 515.747 486.867 515.107C488.641 514.552 490.306 514.422 491.861 514.717C493.414 515 494.785 515.756 495.975 516.983C497.173 518.196 498.122 519.921 498.822 522.157L503.997 538.696L499.998 539.948L494.908 523.68C494.261 521.613 493.224 520.182 491.797 519.388C490.378 518.579 488.726 518.47 486.839 519.06C485.529 519.47 484.44 520.115 483.574 520.993C482.719 521.869 482.159 522.931 481.892 524.18C481.637 525.426 481.746 526.806 482.22 528.319ZM516.011 545.654C515.333 545.866 514.711 545.998 514.144 546.051C513.582 546.116 513.183 546.129 512.948 546.091L512.861 542.248C513.911 542.193 514.798 542.015 515.522 541.713C516.246 541.412 516.803 540.872 517.192 540.093C517.595 539.322 517.833 538.2 517.906 536.726L518.015 534.459L500.204 511.307L504.542 509.949L518.216 528.443L518.487 528.358L519.183 505.368L523.521 504.011L521.804 537.292C521.727 538.792 521.46 540.097 521.001 541.208C520.546 542.331 519.9 543.258 519.063 543.992C518.237 544.721 517.219 545.275 516.011 545.654Z" fill="#FEFEFE"/>
<path d="M148.174 386.036L112.81 377.566L113.836 373.284L131.38 377.486L131.479 377.071L117.74 356.984L119.08 351.389L131.478 370.06L154.443 359.858L153.203 365.039L133.82 373.396L137.734 379.007L149.2 381.753L148.174 386.036ZM138.434 340.254L142.233 341.164L138.528 356.635L134.729 355.726L138.434 340.254ZM124.501 328.751L125.725 323.64L157.958 318.652L158.057 318.238L131.581 299.19L132.805 294.079L168.169 302.548L167.209 306.554L140.341 300.119L140.259 300.465L164.48 317.95L163.554 321.818L134.039 326.435L133.956 326.78L160.824 333.215L159.865 337.221L124.501 328.751ZM173.309 283.526C172.696 286.082 171.604 288.151 170.032 289.735C168.452 291.303 166.523 292.345 164.245 292.858C161.959 293.357 159.458 293.282 156.741 292.631C154.024 291.98 151.748 290.912 149.913 289.426C148.07 287.925 146.78 286.144 146.045 284.081C145.301 282.004 145.215 279.768 145.789 277.374C146.12 275.992 146.676 274.683 147.459 273.447C148.243 272.21 149.284 271.163 150.585 270.306C151.874 269.447 153.444 268.891 155.293 268.641C157.142 268.39 159.304 268.561 161.779 269.153L163.506 269.567L158.61 290.011L155.087 289.168L158.991 272.867C157.495 272.509 156.088 272.488 154.77 272.806C153.455 273.112 152.327 273.73 151.386 274.661C150.448 275.581 149.802 276.777 149.449 278.25C149.061 279.874 149.127 281.375 149.649 282.753C150.162 284.118 150.982 285.269 152.108 286.209C153.234 287.148 154.528 287.792 155.99 288.142L158.338 288.705C160.341 289.185 162.122 289.246 163.68 288.889C165.23 288.517 166.516 287.797 167.539 286.727C168.551 285.655 169.254 284.296 169.648 282.65C169.904 281.579 169.986 280.576 169.894 279.641C169.792 278.692 169.512 277.828 169.054 277.048C168.584 276.266 167.93 275.592 167.092 275.027L169.14 271.354C170.376 272.088 171.383 273.066 172.162 274.287C172.929 275.506 173.422 276.902 173.642 278.476C173.85 280.047 173.739 281.731 173.309 283.526ZM179.362 258.557C178.959 260.238 178.277 261.687 177.316 262.905C176.343 264.121 175.156 264.987 173.754 265.503C172.341 266.017 170.771 266.067 169.044 265.653C167.525 265.289 166.365 264.695 165.564 263.87C164.752 263.043 164.195 262.064 163.894 260.933C163.593 259.801 163.455 258.6 163.48 257.328C163.496 256.041 163.57 254.763 163.704 253.493C163.883 251.831 164.041 250.488 164.177 249.461C164.304 248.421 164.291 247.638 164.136 247.115C163.985 246.579 163.581 246.233 162.924 246.076L162.786 246.043C161.083 245.635 159.647 245.784 158.48 246.49C157.315 247.185 156.508 248.471 156.059 250.347C155.593 252.293 155.654 253.92 156.241 255.229C156.828 256.538 157.551 257.533 158.411 258.213L156.103 261.751C154.657 260.674 153.623 259.452 153.001 258.086C152.37 256.706 152.04 255.288 152.011 253.833C151.973 252.363 152.115 250.96 152.434 249.625C152.638 248.773 152.976 247.82 153.448 246.764C153.911 245.694 154.578 244.716 155.447 243.829C156.32 242.93 157.466 242.286 158.886 241.895C160.307 241.505 162.07 241.562 164.177 242.067L181.651 246.252L180.675 250.327L177.084 249.467L177.034 249.674C177.544 250.088 178.049 250.696 178.551 251.498C179.053 252.3 179.406 253.291 179.61 254.472C179.814 255.653 179.731 257.014 179.362 258.557ZM175.85 257.059C176.236 255.447 176.244 254.013 175.876 252.756C175.51 251.488 174.894 250.452 174.028 249.648C173.164 248.832 172.18 248.292 171.075 248.028L167.345 247.134C167.511 247.357 167.61 247.782 167.642 248.411C167.665 249.025 167.649 249.727 167.594 250.517C167.53 251.293 167.458 252.049 167.379 252.784C167.292 253.506 167.224 254.092 167.177 254.543C167.062 255.636 167.049 256.679 167.139 257.675C167.221 258.656 167.499 259.501 167.974 260.212C168.44 260.908 169.192 261.38 170.228 261.628C171.644 261.967 172.84 261.699 173.816 260.826C174.783 259.937 175.461 258.682 175.85 257.059ZM168.454 230.918L184.409 234.739L183.433 238.814L156.91 232.462L157.853 228.525L161.997 229.518L162.08 229.172C160.882 228.228 160.026 227.025 159.512 225.563C158.986 224.098 158.963 222.364 159.443 220.361C159.873 218.565 160.618 217.082 161.677 215.912C162.725 214.739 164.081 213.956 165.745 213.563C167.398 213.168 169.352 213.24 171.608 213.781L188.461 217.817L187.485 221.892L170.909 217.922C168.825 217.423 167.072 217.575 165.651 218.379C164.217 219.18 163.274 220.524 162.822 222.412C162.511 223.713 162.514 224.943 162.833 226.103C163.155 227.251 163.786 228.248 164.727 229.094C165.669 229.94 166.911 230.548 168.454 230.918ZM174.161 186.654L174.321 190.563C173.655 190.647 172.981 190.844 172.298 191.156C171.606 191.452 170.979 191.935 170.418 192.604C169.856 193.273 169.433 194.2 169.149 195.386C168.76 197.009 168.81 198.451 169.299 199.712C169.78 200.959 170.59 201.719 171.729 201.992C172.742 202.235 173.631 202.058 174.394 201.462C175.158 200.866 175.923 199.832 176.689 198.36L178.599 194.655C179.742 192.421 181.046 190.865 182.51 189.986C183.963 189.105 185.616 188.886 187.469 189.33C188.989 189.694 190.243 190.457 191.23 191.618C192.221 192.768 192.875 194.203 193.194 195.923C193.512 197.642 193.425 199.532 192.931 201.593C192.283 204.298 191.16 206.396 189.561 207.888C187.962 209.379 185.978 210.091 183.609 210.023L183.568 205.923C185.084 205.897 186.322 205.457 187.281 204.603C188.242 203.738 188.923 202.471 189.323 200.802C189.778 198.902 189.736 197.298 189.198 195.988C188.651 194.664 187.807 193.866 186.668 193.593C185.747 193.372 184.898 193.51 184.122 194.006C183.335 194.499 182.626 195.376 181.995 196.637L179.9 200.809C178.743 203.1 177.423 204.671 175.942 205.521C174.451 206.357 172.791 206.555 170.961 206.117C169.464 205.759 168.241 205.021 167.291 203.905C166.344 202.778 165.717 201.404 165.411 199.785C165.108 198.155 165.18 196.407 165.626 194.542C166.255 191.917 167.324 189.995 168.834 188.774C170.346 187.542 172.122 186.835 174.161 186.654Z" fill="white"/>
<defs>
<filter id="filter0_d_43_19" x="49.9006" y="50.9006" width="611" height="611" filterUnits="userSpaceOnUse" color-interpolation-filters="sRGB">
<feFlood flood-opacity="0" result="BackgroundImageFix"/>
<feColorMatrix in="SourceAlpha" type="matrix" values="0 0 0 0 0 0 0 0 0 0 0 0 0 0 0 0 0 0 127 0" result="hardAlpha"/>
<feOffset dy="4"/>
<feGaussianBlur stdDeviation="10"/>
<feComposite in2="hardAlpha" operator="out"/>
<feColorMatrix type="matrix" values="0 0 0 0 0 0 0 0 0 0 0 0 0 0 0 0 0 0 0.25 0"/>
<feBlend mode="normal" in2="BackgroundImageFix" result="effect1_dropShadow_43_19"/>
<feBlend mode="normal" in="SourceGraphic" in2="effect1_dropShadow_43_19" result="shape"/>
</filter>
<linearGradient id="paint0_linear_43_19" x1="466.901" y1="94.9006" x2="199.401" y2="598.401" gradientUnits="userSpaceOnUse">
<stop stop-color="#DD4E9A" stop-opacity="0.880669"/>
<stop offset="1" stop-color="#481832"/>
</linearGradient>
</defs>
</svg>
